<svg id="Layer_1" data-name="Layer 1" xmlns="http://www.w3.org/2000/svg" viewBox="0 0 43.52 39.73"><defs><style>.cls-1{fill:#231f20;fill-rule:evenodd;}</style></defs><title>audio_on</title><path class="cls-1" d="M348.1,425.35a2,2,0,0,1,0-2.8,5.92,5.92,0,0,0,0-8.36,2,2,0,0,1,2.8-2.8,9.89,9.89,0,0,1,0,14,2,2,0,0,1-2.8,0h0Z" transform="translate(-317.47 -398.5)"/><path class="cls-1" d="M353.19,430.45a2,2,0,0,1,0-2.8,13.13,13.13,0,0,0,0-18.54,2,2,0,0,1,2.8-2.8,17.1,17.1,0,0,1,0,24.15,2,2,0,0,1-2.8,0h0Z" transform="translate(-317.47 -398.5)"/><polygon class="cls-1" points="10.25 10.25 0 10.25 0 29.8 10.25 29.8 10.25 29.48 24.67 39.73 24.67 19.87 24.67 0 10.25 10.25 10.25 10.25"/></svg>