<svg id="Layer_1" data-name="Layer 1" xmlns="http://www.w3.org/2000/svg" viewBox="0 0 41.66 39.73"><defs><style>.cls-1{fill:#231f20;fill-rule:evenodd;}</style></defs><title>audio_off</title><path class="cls-1" d="M228.1,423.92a1.76,1.76,0,0,0-.13-2.47l-1.78-1.78a1.84,1.84,0,0,1,0-2.6l1.78-1.78a1.66,1.66,0,1,0-2.34-2.34l-1.78,1.78a1.84,1.84,0,0,1-2.6,0L219.48,413a1.66,1.66,0,1,0-2.34,2.34l1.78,1.78a1.85,1.85,0,0,1,0,2.6l-1.78,1.78a1.66,1.66,0,1,0,2.34,2.34l1.78-1.78a1.84,1.84,0,0,1,2.6,0l1.78,1.78a1.76,1.76,0,0,0,2.47.13h0Z" transform="translate(-186.89 -398.5)"/><polygon class="cls-1" points="10.25 10.25 0 10.25 0 29.8 10.25 29.8 10.25 29.48 24.67 39.73 24.67 19.87 24.67 0 10.25 10.25 10.25 10.25"/></svg>