<?xml version="1.0" encoding="utf-8"?>
<!-- Generator: Adobe Illustrator 19.2.1, SVG Export Plug-In . SVG Version: 6.00 Build 0)  -->
<svg version="1.1" id="Capa_1" xmlns="http://www.w3.org/2000/svg" xmlns:xlink="http://www.w3.org/1999/xlink" x="0px" y="0px"
	 viewBox="0 0 930.3 930.3" style="enable-background:new 0 0 930.3 930.3;" xml:space="preserve">
<g>
	<g>
		<path d="M701.7,518.3l-7.4,4.7c-2.5,1.6-4.6,3.7-6.1,6.1l-31,48.7c-9.6,15.1-26.1,24.6-44,25.4l-57.7,2.5
			c-2.9,0.1-5.8,0.9-8.3,2.2l-8.1,4.2l-57.5,127.5l79.3,175.8c8,17.7,32.2,19.9,43.3,4l60.3-86.6c6.8-9.3,15.6-14.2,21.4-10.7
			l115.2,4c18.5,0.6,31.3-18.4,23.7-35.3L701.7,518.3z"/>
		<path d="M470.6,640.8c-8.8,0-17.6-2.1-25.4-6.2l-14.4-7.5L393.9,608c-2.6-1.3-5.5-2.1-8.3-2.2l-57.7-2.5
			c-17.9-0.8-34.4-10.3-44-25.4l-31-48.7c-1.6-2.5-3.7-4.6-6.1-6.1L230.9,513L105.5,791c-7.5,16.6,4.7,35.3,22.7,35.3
			c0.3,0,0.6,0,0.9,0l115.2-4c0.3,0,0.6,0,0.9,0c8.2,0,15.8,4,20.5,10.7l60.3,86.6c5,7.2,12.8,10.7,20.5,10.7
			c9.3,0,18.5-5.1,22.8-14.7L465,703.4l31-68.6l-0.1,0.1C488.1,638.7,479.3,640.8,470.6,640.8z"/>
	</g>
</g>
<path d="M772.9,293.9l-26.4-51.3c-3.4-6.5-5.3-13.6-5.6-20.9l-2.5-57.6c-0.4-8.2-4.7-15.6-11.6-20l-48.7-31
	c-6.2-3.9-11.4-9.2-15.3-15.3l-31-48.7c-4.4-6.9-11.8-11.2-20-11.6L554.1,35c-7.3-0.3-14.4-2.2-20.9-5.6L481.9,2.8
	c-3.6-1.9-7.6-2.8-11.5-2.8c-3.9,0-7.9,0.9-11.5,2.8l-51.3,26.6c-6.5,3.4-13.6,5.3-20.9,5.6L329,37.5c-8.2,0.4-15.6,4.7-20,11.6
	l-31,48.7c-3.9,6.2-9.2,11.4-15.3,15.3l-48.7,31c-6.9,4.4-11.2,11.8-11.6,20l-2.5,57.7c-0.3,7.3-2.2,14.4-5.6,20.9L167.7,294
	c-3.8,7.2-3.8,15.8,0,23l26.6,51.3c3.4,6.5,5.3,13.6,5.6,20.9l2.5,57.7c0.4,8.2,4.7,15.6,11.6,20l3.6,2.3l12.8,8.1l12.8,8.1
	l19.5,12.4c6.2,3.9,11.4,9.2,15.3,15.3l31,48.7c4.4,6.9,11.8,11.2,20,11.6l57.7,2.5c7.3,0.3,14.4,2.2,20.9,5.6l3.1,1.6l48.1,25
	c3.6,1.9,7.6,2.8,11.5,2.8c3.9,0,7.9-0.9,11.5-2.8l33.9-17.6l17.4-9c1.3-0.7,2.6-1.3,4-1.8c5.4-2.2,11.1-3.5,16.9-3.8l1.3-0.1
	l56.4-2.5c8.2-0.4,15.6-4.7,20-11.6l31-48.7c3.9-6.2,9.2-11.4,15.3-15.3l11-7l37.6-23.9c6.9-4.4,11.2-11.8,11.6-20l2.5-57.7
	c0.3-7.3,2.2-14.4,5.6-20.9l26.6-51.3C776.7,309.7,776.7,301.1,772.9,293.9z M465.2,391.2c-47.4,0-85.7-38.4-85.7-85.7
	c0-47.4,38.4-85.7,85.7-85.7c47.4,0,85.7,38.4,85.7,85.7C550.9,352.8,512.5,391.2,465.2,391.2z"/>
</svg>
