<?xml version="1.0" encoding="UTF-8"?>
<svg width="37px" height="23px" viewBox="0 0 37 23" version="1.1" xmlns="http://www.w3.org/2000/svg" xmlns:xlink="http://www.w3.org/1999/xlink">
    <!-- Generator: Sketch 40.3 (33839) - http://www.bohemiancoding.com/sketch -->
    <title>Behance</title>
    <desc>Created with Sketch.</desc>
    <defs></defs>
    <g id="Page-1" stroke="none" stroke-width="1" fill="none" fill-rule="evenodd">
        <g id="Behance" fill="#000000">
            <g id="Page-1">
                <g id="Desktop-HD-Copy">
                    <path d="M15.057426,10.33868 C15.816741,9.95702 16.391224,9.53241 16.78287,9.06982 C17.48224,8.24157 17.828927,7.14356 17.828927,5.78279 C17.828927,4.46098 17.48224,3.327 16.791862,2.37786 C15.6409,0.83225 13.68866,0.04096 10.930147,0 L0,0 L0,22.31289 L10.191812,22.31289 C11.340776,22.31289 12.403818,22.21497 13.386932,22.01316 C14.371045,21.80934 15.221278,21.43767 15.941629,20.89217 C16.583051,20.41659 17.11657,19.83112 17.542186,19.13675 C18.216578,18.08769 18.552275,16.90076 18.552275,15.57896 C18.552275,14.29611 18.257541,13.2051 17.672069,12.3089 C17.080602,11.41071 16.210387,10.7553 15.057426,10.33868 L15.057426,10.33868 L15.057426,10.33868 Z M4.508935,3.87451 L9.432497,3.87451 C10.514521,3.87451 11.405718,3.9914 12.107086,4.22319 C12.916356,4.55789 13.320991,5.24427 13.320991,6.28633 C13.320991,7.22049 13.013269,7.8739 12.40182,8.24357 C11.786375,8.61324 10.988094,8.79807 10.008977,8.79807 L4.508935,8.79807 L4.508935,3.87451 L4.508935,3.87451 L4.508935,3.87451 Z M12.291919,18.04773 C11.74741,18.3085 10.981101,18.44038 9.999985,18.44038 L4.508935,18.44038 L4.508935,12.48974 L10.077915,12.48974 C11.046042,12.49773 11.801361,12.62562 12.339876,12.8674 C13.301009,13.30301 13.778579,14.09929 13.778579,15.26224 C13.778579,16.634 13.284025,17.55917 12.291919,18.04773 L12.291919,18.04773 Z M23.386917,1.04006 L33.07918,1.04006 L33.07918,3.81656 L23.386917,3.81656 L23.386917,1.04006 L23.386917,1.04006 Z M35.113346,8.58926 C34.356028,7.47726 33.393896,6.66199 32.22495,6.14846 C31.059001,5.63192 29.748182,5.37316 28.291496,5.37316 C25.840705,5.37316 23.850499,6.13947 22.311886,7.66209 C20.77727,9.18872 20.008962,11.38174 20.008962,14.24116 C20.008962,17.28941 20.857198,19.49343 22.563659,20.84521 C24.261129,22.19999 26.225358,22.87538 28.45335,22.87538 C31.149919,22.87538 33.247028,22.0731 34.745677,20.46955 C35.704813,19.45946 36.247324,18.46336 36.365217,17.48724 L31.900242,17.48724 C31.642475,17.9708 31.340747,18.34846 30.999055,18.62321 C30.376616,19.12576 29.565347,19.37853 28.573242,19.37853 C27.631091,19.37853 26.827815,19.17072 26.161416,18.75709 C25.059409,18.09169 24.482929,16.93074 24.409995,15.27723 L36.596009,15.27723 C36.614992,13.85251 36.568034,12.7575 36.449142,12.00118 C36.247324,10.70835 35.803723,9.57037 35.113346,8.58926 L35.113346,8.58926 Z M24.516898,12.42979 C24.676754,11.35576 25.066403,10.50453 25.683846,9.8761 C26.30129,9.24766 27.174503,8.93395 28.293494,8.93395 C29.326562,8.93395 30.189784,9.22868 30.891152,9.82115 C31.584527,10.41761 31.976174,11.28383 32.055103,12.42979 L24.516898,12.42979 L24.516898,12.42979 L24.516898,12.42979 Z" id="Behance"></path>
                </g>
            </g>
        </g>
    </g>
</svg>