<?xml version="1.0" encoding="UTF-8"?>
<svg width="26px" height="26px" viewBox="0 0 26 26" version="1.1" xmlns="http://www.w3.org/2000/svg" xmlns:xlink="http://www.w3.org/1999/xlink">
    <!-- Generator: Sketch 40.2 (33826) - http://www.bohemiancoding.com/sketch -->
    <title>Dribbble</title>
    <desc>Created with Sketch.</desc>
    <defs></defs>
    <g id="Page-1" stroke="none" stroke-width="1" fill="none" fill-rule="evenodd">
        <g id="Desktop-HD-Copy" transform="translate(-299.000000, -5282.000000)" fill="#000000">
            <path d="M323.976986,5289.93952 C323.652997,5289.1696 323.248187,5288.42662 322.778862,5287.73256 C322.31521,5287.04417 321.780662,5286.39619 321.193652,5285.80918 C320.604515,5285.22076 319.957954,5284.68763 319.268855,5284.22256 C318.574794,5283.75181 317.831815,5283.34984 317.061188,5283.0223 C316.274963,5282.69264 315.452582,5282.436 314.618149,5282.26586 C313.761739,5282.09004 312.881224,5282 312.000709,5282 C311.118776,5282 310.238261,5282.09004 309.381851,5282.26586 C308.546709,5282.436 307.724328,5282.69264 306.938812,5283.0223 C306.168185,5283.34984 305.425206,5283.75181 304.729727,5284.22256 C304.041337,5284.68763 303.394776,5285.22076 302.806348,5285.80918 C302.219338,5286.39619 301.685499,5287.04417 301.221138,5287.73256 C300.751813,5288.42662 300.346294,5289.1696 300.022305,5289.93952 C299.689099,5290.72575 299.433877,5291.54954 299.262311,5292.38398 C299.088619,5293.23826 299,5294.11878 299,5294.99929 C299,5295.88335 299.088619,5296.76387 299.262311,5297.61957 C299.433877,5298.454 299.689099,5299.27638 300.022305,5300.06119 C300.346294,5300.83111 300.751813,5301.57692 301.221138,5302.27098 C301.685499,5302.95937 302.219338,5303.60381 302.806348,5304.19436 C303.394776,5304.78137 304.041337,5305.31308 304.729727,5305.77957 C305.425206,5306.2489 306.168185,5306.65229 306.938812,5306.9777 C307.724328,5307.3109 308.546709,5307.56471 309.381851,5307.73414 C310.238261,5307.91209 311.118776,5308.00071 312.000709,5308.00071 C312.881224,5308.00071 313.761739,5307.91209 314.618149,5307.73414 C315.452582,5307.56471 316.274963,5307.3109 317.061188,5306.9777 C317.831815,5306.65229 318.574794,5306.2489 319.268855,5305.77957 C319.957954,5305.31308 320.604515,5304.78137 321.193652,5304.19436 C321.780662,5303.60381 322.31521,5302.95937 322.778862,5302.27098 C323.248187,5301.57692 323.652997,5300.83111 323.976986,5300.06119 C324.308775,5299.27638 324.566123,5298.454 324.73698,5297.61957 C324.911381,5296.76387 325,5295.88335 325,5294.99929 C325,5294.11878 324.911381,5293.23826 324.73698,5292.38398 C324.566123,5291.54954 324.308775,5290.72575 323.976986,5289.93952 L323.976986,5289.93952 Z M312.000709,5283.89857 C314.810274,5283.89857 317.377379,5284.9471 319.332661,5286.66985 C319.305012,5286.71097 317.724764,5289.11856 313.532748,5290.68888 C311.634891,5287.20227 309.549872,5284.4324 309.383269,5284.21192 C310.222665,5284.00845 311.098926,5283.89857 312.000709,5283.89857 L312.000709,5283.89857 Z M309.340732,5284.22114 C309.340732,5284.22256 309.338605,5284.22397 309.338605,5284.22397 C309.338605,5284.22397 309.325135,5284.22752 309.305284,5284.23035 C309.317337,5284.22752 309.327971,5284.2261 309.340732,5284.22114 L309.340732,5284.22114 Z M307.262802,5284.96128 C307.410972,5285.15837 309.464089,5287.9417 311.38605,5291.35671 C306.054753,5292.7739 301.427442,5292.71718 301.135355,5292.71293 C301.855647,5289.27311 304.165403,5286.42242 307.262802,5284.96128 L307.262802,5284.96128 Z M303.742161,5302.41915 C301.973333,5300.45253 300.897148,5297.8521 300.897148,5294.99929 C300.897148,5294.88161 300.902819,5294.76534 300.906364,5294.64907 C301.103452,5294.65403 306.588591,5294.7781 312.304848,5293.0674 C312.623166,5293.68915 312.927305,5294.32366 313.205214,5294.95534 C313.058461,5294.99504 312.913126,5295.03899 312.767792,5295.08791 C306.776463,5297.02334 303.737198,5302.41348 303.737198,5302.41348 C303.737198,5302.41348 303.742161,5302.41773 303.742161,5302.41915 L303.742161,5302.41915 Z M312.000709,5306.10356 C309.378306,5306.10356 306.970006,5305.19185 305.069313,5303.67116 C305.029612,5303.64067 304.982822,5303.60381 304.926815,5303.55843 C304.982822,5303.60381 305.029612,5303.64067 305.069313,5303.67116 C305.133828,5303.72149 305.175656,5303.75269 305.175656,5303.75269 C305.175656,5303.75269 307.303921,5299.1112 313.88864,5296.81704 C313.913454,5296.80782 313.938976,5296.80144 313.963789,5296.79435 C315.525604,5300.85237 316.170039,5304.25249 316.334515,5305.22305 C315.003108,5305.78879 313.537002,5306.10356 312.000709,5306.10356 L312.000709,5306.10356 Z M318.204723,5304.20783 C318.091291,5303.53858 317.499318,5300.27954 316.042428,5296.27894 C319.627584,5295.7054 322.732781,5296.68872 322.96248,5296.76387 C322.468343,5299.85772 320.696679,5302.52479 318.204723,5304.20783 L318.204723,5304.20783 Z M315.366799,5294.52571 C315.287397,5294.33571 315.209413,5294.14501 315.127175,5293.95359 C314.896057,5293.40983 314.647216,5292.87173 314.38845,5292.34286 C318.7733,5290.55276 320.552762,5287.97999 320.574031,5287.9495 C322.130174,5289.84027 323.073785,5292.25566 323.100016,5294.8894 C322.939085,5294.85467 319.181655,5294.04575 315.366799,5294.52571 L315.366799,5294.52571 Z" id="Dribbble"></path>
        </g>
    </g>
</svg>