<svg id="Layer_1" data-name="Layer 1" xmlns="http://www.w3.org/2000/svg" viewBox="0 0 104.88 91.15"><title>dxf_symbol</title><path d="M54.19,1936.23a0.33,0.33,0,0,1-.21,0c-0.07,0-.16-0.15-0.2,0a0.18,0.18,0,0,0,.13.22l0.21,0.08c0.15,0,.38,0,0.4.19a0.16,0.16,0,0,1,0,0l0.25-.25-0.05-.05C54.55,1936.34,54.32,1936.39,54.19,1936.23Z" transform="translate(-28.44 -1915.92)"/><path d="M41.32,1919.25l-0.15-.11a0.31,0.31,0,0,0-.24.17,3,3,0,0,0-.43,1.18,4.31,4.31,0,0,1-1.92,3,10.14,10.14,0,0,1-1.63.92,0.24,0.24,0,0,0-.17.3,0.27,0.27,0,0,0,.35.2,1.71,1.71,0,0,0,.41-0.16c0.48-.27,1-0.53,1.42-0.83a4.08,4.08,0,0,0,1.7-2.42,4.33,4.33,0,0,1,.7-2A0.14,0.14,0,0,0,41.32,1919.25Z" transform="translate(-28.44 -1915.92)"/><path d="M55.11,1935.66c0.23,0,.24-0.3.45-0.31a0.11,0.11,0,0,0,.11-0.15,0.32,0.32,0,0,1,0-.26c0.15-.22,0-0.25-0.17-0.27a0.39,0.39,0,0,0-.39.14c-0.16.18-.33,0.34-0.49,0.51a1.12,1.12,0,0,0-.36.57,1.33,1.33,0,0,0,.36,0C54.85,1935.94,55.06,1936,55.11,1935.66Z" transform="translate(-28.44 -1915.92)"/><path d="M53.28,1938.54a1,1,0,0,0,.16-0.15,0.16,0.16,0,0,0,0-.21,1.82,1.82,0,0,0-.22-0.29q-0.8-.76-1.62-1.5a2.08,2.08,0,0,0-.36-0.25,0.17,0.17,0,0,0-.15,0,0.09,0.09,0,0,0,0,.14,0.43,0.43,0,0,1,.12.64c-0.07.17,0,.22,0.16,0.24s0.38,0.18.25,0.32-0.12.24,0.1,0.24a0.17,0.17,0,0,1,.19.06c0,0.12-.08.13-0.15,0.19s-0.14.21,0,.26,0.28,0.13.07,0.29-0.2.23-.1,0.32,0.11,0.35-.05.49a0.11,0.11,0,0,0,0,.19,3,3,0,0,0,.39.79c0.14-.24.36-0.68,0.51-1A2.63,2.63,0,0,1,53.28,1938.54Z" transform="translate(-28.44 -1915.92)"/><path d="M56,1931a0.48,0.48,0,0,0,.41.33,0.27,0.27,0,0,1,.11,0,0.13,0.13,0,0,1,.06.08,0.1,0.1,0,0,1-.05.08l-0.16,0a0.13,0.13,0,0,0-.11.16,0.13,0.13,0,0,0,.16.1l0.44,0a0.37,0.37,0,0,1,.26.05,0.18,0.18,0,0,1,.12.16c0,0.08-.08.07-0.13,0.06a0.71,0.71,0,0,0-.47.13,0.15,0.15,0,0,0-.05.09,0.1,0.1,0,0,0,.1.1,1.14,1.14,0,0,0,.16,0,0.22,0.22,0,0,1,.14,0c0.06,0.09,0,.12-0.09.15a0.17,0.17,0,0,0-.08.23,0.18,0.18,0,0,0,.19.08h0.27l0.35-.44h0l-0.09,0-0.29.07-0.14,0a0.13,0.13,0,0,1-.08-0.07,0.1,0.1,0,0,1,0-.09,0.52,0.52,0,0,0,.37-0.15c0-.08.12,0.08,0.17,0.14a0.1,0.1,0,0,1,0,.05,4.67,4.67,0,0,1,.21-0.44l-0.22-.13a1.11,1.11,0,0,1-.32-0.22c-0.41-.49-1-0.71-1.46-1.17a0.15,0.15,0,0,0-.15,0,0.13,0.13,0,0,0,0,.19A1.61,1.61,0,0,1,56,1931Z" transform="translate(-28.44 -1915.92)"/><path d="M111.62,1981.21a2.43,2.43,0,0,1-.39,1.12,0.74,0.74,0,0,0,.2,1.06,3.82,3.82,0,0,1,.52.49c0.64,0.66,1.26,1.33,1.89,2a2.76,2.76,0,0,1,.47.46,0.14,0.14,0,0,0,.19.06,0.3,0.3,0,0,0,.08-0.2,1,1,0,0,0,0-.21,0.58,0.58,0,0,1-.14-0.49c0.07-.16-0.29-0.11-0.35-0.29a1.68,1.68,0,0,1-.25-0.43,0.22,0.22,0,0,0-.24-0.25c-0.06,0-.14-0.07,0-0.12s0.29,0,.3-0.18a0.43,0.43,0,0,0-.25-0.28c-0.09-.06-0.19-0.11-0.28-0.18a0.24,0.24,0,0,1-.06-0.13c0.27-.18,0-0.22-0.08-0.29s-0.22-.23-0.06-0.31,0.27-.23,0-0.37a0.14,0.14,0,0,1-.06-0.14c0-.23-0.12-0.28-0.31-0.28a1.94,1.94,0,0,1-.33,0,0.27,0.27,0,0,1-.13,0c0-.07.07-0.07,0.12-0.08a0.29,0.29,0,0,0,.1,0,0.34,0.34,0,0,0,.23-0.21c0-.14-0.14-0.15-0.23-0.19a1.75,1.75,0,0,1-.23-0.15,0.44,0.44,0,0,1,.08-0.09c0.11-.06.22-0.12,0-0.2a1,1,0,0,1-.27-0.27,1.5,1.5,0,0,0-.37-0.59,1.38,1.38,0,0,0-.08.69A1.31,1.31,0,0,0,111.62,1981.21Z" transform="translate(-28.44 -1915.92)"/><path d="M107.74,1987.49c-0.09,0-.21-0.1-0.11-0.18s0.08-.2,0-0.25a2.65,2.65,0,0,0-.52-0.28,0.17,0.17,0,0,0-.22.24c0.1,0.19.13,0.26-.13,0.33a0.93,0.93,0,0,1-.61.11,1.29,1.29,0,0,0-.61.27c-0.08,0,0,.1,0,0.1a2.43,2.43,0,0,0,1.28-.11,0.56,0.56,0,0,1,.51,0,0.63,0.63,0,0,0,.27,0c0.08,0,.19.1,0.22,0A0.15,0.15,0,0,0,107.74,1987.49Z" transform="translate(-28.44 -1915.92)"/><path d="M104.69,1985.66h0C104.74,1985.69,104.72,1985.64,104.69,1985.66Z" transform="translate(-28.44 -1915.92)"/><path d="M104.67,1985.68v0a0.3,0.3,0,0,0-.16,0l-0.22,0,0.17,0A0.17,0.17,0,0,0,104.67,1985.68Z" transform="translate(-28.44 -1915.92)"/><path d="M117.62,1939.52c0.87-.73,1.62-1.58,2.46-2.34a5.73,5.73,0,0,0,1-.92,0.23,0.23,0,0,1,.25-0.09,0.88,0.88,0,0,0,.78-0.34,3.49,3.49,0,0,0,.84-1,0.5,0.5,0,0,1,.41-0.32,2.34,2.34,0,0,0,1.83-1.36,1.2,1.2,0,0,1,.81-0.67,1.89,1.89,0,0,0,1.4-1.43,3,3,0,0,0,0-.5,0.39,0.39,0,0,1,.17-0.33c0.5-.35,1-0.73,1.45-1.12a8.29,8.29,0,0,0,.76-0.64,1.71,1.71,0,0,1,.75-0.71,0.3,0.3,0,0,0,.11-0.18,0.62,0.62,0,0,1,.2-0.26,9.22,9.22,0,0,0,1.22-1.36,5.66,5.66,0,0,0,1.12-2,1.18,1.18,0,0,0-.06-0.91,4.28,4.28,0,0,1-.41-1.2,1.7,1.7,0,0,0-.17-0.47,6.49,6.49,0,0,0-1.81-2,0.87,0.87,0,0,0-.35-0.16,1.25,1.25,0,0,1-.67-0.35,1.33,1.33,0,0,0-.73-0.39,2.65,2.65,0,0,1-.82-0.32,5,5,0,0,0-1.69-.46,2.58,2.58,0,0,0-1.42.14,0.39,0.39,0,0,1-.27,0c-0.68-.25-1.15.27-1.7,0.46-0.3.41-.72,0.69-1,1.07a6.12,6.12,0,0,1-1,.91,5.11,5.11,0,0,0-1,1.09,0.22,0.22,0,0,1-.25.12,1.34,1.34,0,0,0-1,.25,2.45,2.45,0,0,0-1,1,0.15,0.15,0,0,1-.21.12,0.42,0.42,0,0,0-.58.15,0.51,0.51,0,0,1-.37.22,0.2,0.2,0,0,0-.17.11,3,3,0,0,1-1.61,1.55l0,0a3.35,3.35,0,0,0-1.12,1.29,1.18,1.18,0,0,1-.34.42c-0.69.53-1.39,1.06-2.06,1.61-1.07.89-2.13,1.79-3.24,2.63-0.45.34-.32,0.37-0.69-0.11-0.07-.09-0.1-0.2-0.17-0.29a13.57,13.57,0,0,0-1.73-2.22l-1.57-1.41a21.13,21.13,0,0,0-2.4-2.06c-0.43-.29-0.89-0.53-1.32-0.81a15.88,15.88,0,0,0-4.08-1.83,4.68,4.68,0,0,1-1.39-.67,3.36,3.36,0,0,0-1.07-.44,0.53,0.53,0,0,0-.17,0l0.13,0.08c0.34,0.27.78,0.32,1.12,0.59l0.13,0.1a0.4,0.4,0,0,1-.14,0,1.69,1.69,0,0,0-.49-0.08,3.53,3.53,0,0,1-1.28-.33,4.29,4.29,0,0,0-1-.4,9.81,9.81,0,0,1-1.34-.51,15.82,15.82,0,0,0-1.7-.65,11.21,11.21,0,0,1-1.15-.39c-0.74-.31-1.53-0.41-2.28-0.66a6.44,6.44,0,0,0-1.63-.29c-0.53,0-1.05-.16-1.59-0.2s-0.85,0-1.28,0a9.19,9.19,0,0,0-2.25-.09,0.4,0.4,0,0,1-.22,0,1.59,1.59,0,0,0-.6-0.06c-0.5,0-1,.13-1.49.12a1.72,1.72,0,0,0-.95.25,1.59,1.59,0,0,1-.83.2,5.24,5.24,0,0,0-1,.07,5.42,5.42,0,0,0-1.06.32,6.41,6.41,0,0,1-1.36.43,8.78,8.78,0,0,0-2.51,1c-0.64.32-1.28,0.66-1.93,0.95a3.25,3.25,0,0,0-.8.48,2.38,2.38,0,0,1-.46.31,5.84,5.84,0,0,0-1.27,1,6.23,6.23,0,0,1-1.39,1.09,2,2,0,0,0-.85.91c-0.19.36-.29,0.75-0.45,1.12l-0.64,1.53a17.26,17.26,0,0,1-1,1.92c-0.29.5-.66,1-1,1.42-0.43-.38-0.86-0.77-1.27-1.18-0.81-.8-1.73-1.46-2.57-2.22a5.73,5.73,0,0,0-1-.93,0.23,0.23,0,0,1-.11-0.24,0.88,0.88,0,0,0-.41-0.74,3.49,3.49,0,0,0-1.11-.73,0.5,0.5,0,0,1-.36-0.38,2.34,2.34,0,0,0-1.53-1.69,1.2,1.2,0,0,1-.74-0.75,1.89,1.89,0,0,0-1.56-1.26,3,3,0,0,0-.5,0,0.39,0.39,0,0,1-.34-0.13c-0.4-.46-0.82-0.9-1.25-1.34a8.29,8.29,0,0,0-.71-0.7,1.71,1.71,0,0,1-.78-0.67,0.3,0.3,0,0,0-.19-0.1,0.62,0.62,0,0,1-.28-0.17,9.22,9.22,0,0,0-1.47-1.09,5.66,5.66,0,0,0-2.1-.93,1.18,1.18,0,0,0-.9.15,4.28,4.28,0,0,1-1.16.53,1.7,1.7,0,0,0-.45.21,6.49,6.49,0,0,0-1.83,2,0.87,0.87,0,0,0-.12.37,1.25,1.25,0,0,1-.28.7,1.33,1.33,0,0,0-.31.76,2.65,2.65,0,0,1-.24.85,5,5,0,0,0-.3,1.72,2.58,2.58,0,0,0,.28,1.4,0.39,0.39,0,0,1,.06.27c-0.18.7,0.38,1.12,0.62,1.65,0.43,0.26.75,0.65,1.16,0.93a6.12,6.12,0,0,1,1,.88,5.11,5.11,0,0,0,1.18.9,0.22,0.22,0,0,1,.14.24,1.34,1.34,0,0,0,.35,1,2.45,2.45,0,0,0,1.09.91,0.15,0.15,0,0,1,.14.2,0.42,0.42,0,0,0,.21.56,0.51,0.51,0,0,1,.25.35,0.2,0.2,0,0,0,.13.16,3,3,0,0,1,1.7,1.45l0,0a3.35,3.35,0,0,0,1.39,1,1.18,1.18,0,0,1,.45.3c0.59,0.64,1.19,1.28,1.8,1.89,1,1,2,2,2.93,3l0.22,0.23c0.1,0,1.19,1.12,1.82,1.72a11.57,11.57,0,0,0-.41,1.28,10,10,0,0,0-.4,1.61,5.51,5.51,0,0,1-.08.72A16.23,16.23,0,0,0,51,1950a1,1,0,0,0,0,.11,23.54,23.54,0,0,1,.31,3.6c0,1.39-.07,2.79,0,4.18a15.69,15.69,0,0,1,0,2,3.17,3.17,0,0,0,.14,1.15c0.24,0.74.46,1.49,0.63,2.24a11.63,11.63,0,0,1,.41,2.18,3.48,3.48,0,0,0,.19,1,13.39,13.39,0,0,1,.54,2.14c0,0.27.09,0.55,0.13,0.82a4.8,4.8,0,0,0,.44.95,5,5,0,0,0,.65,1.16c0.27,0.37.28,0.44,0,.74a13.19,13.19,0,0,1-1.3,1.13,3.7,3.7,0,0,0-1.41,2,12.17,12.17,0,0,0-.4,2.19,7.42,7.42,0,0,0-.06,1.61,0.57,0.57,0,0,1-.4.73,1.09,1.09,0,0,0-.36.25c-0.93.82-1.87,1.63-2.79,2.47s-2,1.82-3,2.68c-0.2.17-.42,0.3-0.61,0.48-0.68.67-1.39,1.33-2,2.06a13.21,13.21,0,0,0-1.64,1.61l0,0a1.31,1.31,0,0,0-.64.66c-0.28.37-.58,0.72-0.86,1.1-0.43.6-.88,1.2-1.26,1.83-0.52.83-1.06,1.65-1.61,2.46-0.36.52-.77,1-1.14,1.51-0.55.77-1.09,1.54-1.62,2.33-1,1.43-2,2.82-3,4.23-0.31.44-.61,0.88-0.93,1.31a4.16,4.16,0,0,0-.56.88,1.2,1.2,0,0,0-.3,1,0.19,0.19,0,0,1-.05.09,0.17,0.17,0,0,0,0,.25,0.19,0.19,0,0,0,.25,0,0.41,0.41,0,0,1,.18-0.11,5.4,5.4,0,0,0,1.66-.73,2.8,2.8,0,0,1,.76-0.32,9.45,9.45,0,0,0,2.09-.74,11.55,11.55,0,0,1,1.41-.64c1.32-.46,2.49-1.21,3.78-1.75,1.09-.45,2.12-1.07,3.24-1.45a10,10,0,0,0,1.44-.56c0.48-.25,1-0.38,1.47-0.66a5.64,5.64,0,0,1,1.31-.59,2,2,0,0,0,.61-0.25A23,23,0,0,1,48.9,1998a2.55,2.55,0,0,0,.76-0.62,1.69,1.69,0,0,1,.23-0.24l2-1.83c1.18-1.08,2.3-2.2,3.45-3.31s2.75-2.27,4-3.49a8.43,8.43,0,0,1,.92-0.72,0.41,0.41,0,0,1,.5,0,5.77,5.77,0,0,0,1.43.55,3.6,3.6,0,0,1,2.38,2,1.12,1.12,0,0,1-.08,1.2,4.63,4.63,0,0,0-.65,1.29,10.78,10.78,0,0,1-.56,1.45,5.63,5.63,0,0,0-.52,1.87,1.08,1.08,0,0,0,.1.76,2.55,2.55,0,0,1,.39,1.07c0.18,0.67.23,1.37,0.46,2a2.34,2.34,0,0,0,.69.92,0.67,0.67,0,0,0,.73.09c0.06,0,.13,0,0.11.06a0.9,0.9,0,0,0,.14.84,1.37,1.37,0,0,0,1.09,1.13,0.41,0.41,0,0,1,.3.22,1.1,1.1,0,0,0,.95.49l0.6,0c0.25,0,.3.07,0.28,0.29a1.54,1.54,0,0,1-.05.27,0.47,0.47,0,0,0,.25.56A1.63,1.63,0,0,0,70,2005a1.37,1.37,0,0,1,1.41.53c0.05,0.08.13,0.14,0.18,0.21a1.1,1.1,0,0,0,1.48.28c0.18-.11.37-0.17,0.55-0.26a0.23,0.23,0,0,1,.29,0,2.36,2.36,0,0,0,1.91.48c0.33,0,.65-0.12,1-0.18a1.38,1.38,0,0,1,1,.11c0.38,0.13.77,0.24,1.15,0.38a1.39,1.39,0,0,0,1,0c0.19-.06.41-0.07,0.59-0.15a0.8,0.8,0,0,1,.69,0,2.17,2.17,0,0,0,1.41.17c0.16,0,.33,0,0.5-0.07a1.32,1.32,0,0,0,.68-0.33,2.18,2.18,0,0,1,1.77-.57c0.44,0.07.87,0.2,1.3,0.29a0.76,0.76,0,0,0,.54,0,0.54,0.54,0,0,1,.61.07,1.91,1.91,0,0,0,.82.32c0.33,0,.34,0,0.44-0.32a0.61,0.61,0,0,1,.2-0.32,0.85,0.85,0,0,0,.31-0.46,0.25,0.25,0,0,1,.39-0.21,2.24,2.24,0,0,0,1.2.16,1.29,1.29,0,0,0,1.05-1.16c0-.26,0-0.29.3-0.22a1.84,1.84,0,0,0,.88,0,0.28,0.28,0,0,0,.26-0.3c0-.19.08-0.2,0.24-0.15a3,3,0,0,1,.43.11,0.42,0.42,0,0,0,.58-0.19,2.59,2.59,0,0,0,.25-0.43,7.33,7.33,0,0,0,.6-2,0.32,0.32,0,0,1,.06-0.2c0.07,0,.14,0,0.19.08a1.87,1.87,0,0,0,.54.39,0.25,0.25,0,0,0,.35,0,4.18,4.18,0,0,0,.4-0.61c0.12-.39.33-0.74,0.46-1.12a3.38,3.38,0,0,0,.2-2,2.75,2.75,0,0,1-.06-0.39,8.08,8.08,0,0,0-.58-2.25,21.23,21.23,0,0,1-.9-2.86,3.31,3.31,0,0,1-.06-0.94,0.75,0.75,0,0,1,.29-0.63,3.12,3.12,0,0,1,.8-0.66,1.44,1.44,0,0,1,1.19-.66,1.23,1.23,0,0,1,.65-0.06,0.3,0.3,0,0,0,.21,0,2,2,0,0,1,.72-0.22,6,6,0,0,0,1.69-1,2,2,0,0,0,.57-0.74,0.56,0.56,0,0,1,.2-0.21v0a0.5,0.5,0,0,1,.42.36,1.09,1.09,0,0,0,.29.34c0.91,0.85,1.8,1.71,2.73,2.54s2,1.77,3,2.71c0.18,0.18.33,0.39,0.54,0.56,0.74,0.62,1.46,1.26,2.24,1.81a13.21,13.21,0,0,0,1.76,1.48,0.08,0.08,0,0,1,0,0,1.31,1.31,0,0,0,.72.58c0.39,0.25.77,0.51,1.18,0.75,0.64,0.37,1.28.76,1.94,1.08,0.88,0.43,1.75.89,2.6,1.37,0.55,0.31,1.07.67,1.61,1,0.82,0.48,1.64.94,2.47,1.39,1.52,0.82,3,1.7,4.5,2.55,0.47,0.27.94,0.52,1.39,0.8a4.16,4.16,0,0,0,.93.47,1.2,1.2,0,0,0,1,.2,0.19,0.19,0,0,1,.1,0,0.17,0.17,0,0,0,.24,0,0.19,0.19,0,0,0,0-.25,0.41,0.41,0,0,1-.13-0.17,5.4,5.4,0,0,0-.88-1.58,2.8,2.8,0,0,1-.39-0.72,9.45,9.45,0,0,0-.94-2,11.56,11.56,0,0,1-.77-1.34c-0.59-1.27-1.45-2.37-2.1-3.59-0.56-1-1.27-2-1.76-3.09a10,10,0,0,0-.7-1.38c-0.29-.45-0.47-1-0.8-1.39a5.64,5.64,0,0,1-.72-1.25,2,2,0,0,0-.31-0.59,23,23,0,0,1-1.48-2.08,2.55,2.55,0,0,0-.69-0.7,1.69,1.69,0,0,1-.26-0.21l-2-1.84c-1.18-1.07-2.42-2.08-3.63-3.11s-2.44-2.42-3.73-3.57a2.45,2.45,0,0,0-.58-1.31,17.14,17.14,0,0,0-1.66-1.35,1.12,1.12,0,0,1-.53-0.73c-0.19-1,.34-1.18.67-2.11a12.27,12.27,0,0,1,.58-1.32c0.21-.43.35-0.9,0.6-1.31a1.76,1.76,0,0,0,.12-0.42c0.16-.55.31-1.1,0.5-1.64s0.36-.89.47-1.36a13.23,13.23,0,0,1,.6-2.42,1.79,1.79,0,0,0,0-.27c0.15-.59.11-1.22,0.31-1.8a19.59,19.59,0,0,0,.5-2.78c0.17-.93.24-1.88,0.4-2.8a12.77,12.77,0,0,0,.4-2,28.14,28.14,0,0,0,.09-3.31c-0.07-.75-0.18-1.5-0.31-2.24a13,13,0,0,0-.45-2.33,0.7,0.7,0,0,1,0-.22,10.53,10.53,0,0,0-.06-1.44,1.53,1.53,0,0,1,.53-1.45A51.7,51.7,0,0,1,117.62,1939.52Zm3.62-18.19c0.25-.24.54-0.44,0.79-0.68a14.81,14.81,0,0,0,1.21-1.22,1.92,1.92,0,0,1,1.52-.62l0.43-.06a4.3,4.3,0,0,1,1.9.05c0.6,0.14,1.12.46,1.72,0.58a0.92,0.92,0,0,1,.33.2,1.93,1.93,0,0,0,1,.53,1.15,1.15,0,0,1,.42.34,3.57,3.57,0,0,1,1.64,2.8,4.42,4.42,0,0,1-.17,1.47,2,2,0,0,1-.52.73,9.29,9.29,0,0,1-1.61,1.66l0,0a10.52,10.52,0,0,1-2,1.81l-0.21.18c-0.23.17-.29,0.15-0.43-0.09-0.42-.72-0.83-1.44-1.27-2.14a14.56,14.56,0,0,0-1.82-2.3c-0.47-.49-0.93-1-1.36-1.52a9.4,9.4,0,0,0-1.49-1.31C121.07,1921.59,121,1921.52,121.25,1921.32Zm-2.51,1.38a1.48,1.48,0,0,1,1.18-.36,1.15,1.15,0,0,1,1.06.37c0.38,0.28.76,0.59,1.15,0.87a8.2,8.2,0,0,1,1.72,1.78c0.44,0.59.92,1.15,1.34,1.75a10.83,10.83,0,0,1,.83,1.36c0.2,0.39.35,0.8,0.52,1.2a0.42,0.42,0,0,1,0,.55,1.37,1.37,0,0,0,0,.41,2.31,2.31,0,0,1-1.11,1,0.15,0.15,0,0,1-.22-0.11c-0.17-.37-0.35-0.73-0.5-1.11a10.61,10.61,0,0,0-.79-1.69,10.75,10.75,0,0,0-1.19-1.57c-0.35-.38-0.62-0.82-1-1.19a6.6,6.6,0,0,1-.83-1,3.81,3.81,0,0,0-.75-0.62,4.63,4.63,0,0,0-1.31-.91,0.41,0.41,0,0,1-.35-0.23A0.68,0.68,0,0,1,118.74,1922.7Zm-1.93,1.5c0.12-.12.26-0.21,0.37-0.33a0.45,0.45,0,0,1,.55-0.2,1.76,1.76,0,0,1,1.36.56c0.35,0.33.72,0.64,1.09,0.94a8.2,8.2,0,0,1,1.38,1.48c0.29,0.38.64,0.71,0.95,1.08a9.61,9.61,0,0,1,1.63,2.58c0.15,0.37.32,0.73,0.49,1.1a1.23,1.23,0,0,1-.45,1.65,1.07,1.07,0,0,1-.65.37,1,1,0,0,1-.31-0.67,1.54,1.54,0,0,1-.16-0.55,2.63,2.63,0,0,0-.29-0.45,7.75,7.75,0,0,0-.84-1.53,8.49,8.49,0,0,0-1.08-1.49,4.48,4.48,0,0,1-.53-0.71,12,12,0,0,0-1.75-1.87c-0.41-.4-0.86-0.78-1.28-1.17-0.15-.14-0.32-0.25-0.47-0.38S116.62,1924.37,116.8,1924.19Zm-2,1.79a3.06,3.06,0,0,1,1.62-.88,0.43,0.43,0,0,1,.45.15c0.27,0.27.56,0.53,0.83,0.81a8.7,8.7,0,0,0,1.13,1.05,2.62,2.62,0,0,1,.35.36c0.68,0.76,1.28,1.57,1.91,2.36,0.17,0.22.3,0.46,0.45,0.7a9,9,0,0,1,1.09,2.14,1.69,1.69,0,0,1,.26.72,0.55,0.55,0,0,1-.05.21,10.47,10.47,0,0,1-.75,1.14c-0.17.16-.3,0.24-0.38-0.09a11.71,11.71,0,0,0-.91-1.88c-0.26-.6-0.7-1.07-0.93-1.68a3,3,0,0,0-.49-0.79,14.42,14.42,0,0,0-2.67-2.69,8.84,8.84,0,0,0-1.12-.71,3.57,3.57,0,0,1-.74-0.47C114.62,1926.19,114.64,1926.23,114.83,1926Zm-3.42,9.71c0-.07.17-0.15,0-0.2a0.18,0.18,0,0,0-.23.1c0,0.07-.07.13-0.1,0.2s0,0.38-.23.38a0.47,0.47,0,0,1-.27-0.39c-0.15-.31-0.17-0.32.09-0.54,0.86-.73,1.7-1.47,2.6-2.16a20.87,20.87,0,0,0,1.88-1.65c0.68-.66,1.46-1.2,2.16-1.83a0.34,0.34,0,0,1,.54,0,27,27,0,0,1,1.77,2.2c0.11,0.16.23,0.31-.07,0.4-0.62.69-1.45,1.14-2.08,1.83a2.19,2.19,0,0,1-.45.32c-0.47.3-.88,0.67-1.37,0.94a8.61,8.61,0,0,0-1.55,1.24,4.73,4.73,0,0,1-.92.81,1,1,0,0,0-.22.25,2.81,2.81,0,0,1-.63.54c-0.23.14-.25,0.14-0.37-0.1a2.65,2.65,0,0,1-.37-0.74,0.77,0.77,0,0,0-.44-0.46c-0.28-.14-0.28-0.28,0-0.47s0.15-.37.32-0.48A0.33,0.33,0,0,1,111.41,1935.7Zm-3.1-3.77c0.5-.41,1-0.86,1.51-1.22s1-.81,1.45-1.2,1.22-1,1.87-1.47a8.1,8.1,0,0,0,1.18-1,0.28,0.28,0,0,1,.39-0.07,3,3,0,0,1,.37.25c0.6,0.49,1.21,1,1.8,1.47s0.51,0.53,0,.89-0.72.67-1.16,0.92-0.68.67-1.07,1c-0.78.56-1.43,1.26-2.22,1.81a18.38,18.38,0,0,0-1.41,1.25c-0.21.18-.44,0.33-0.66,0.5a0.71,0.71,0,0,1-.13.06,0.31,0.31,0,0,1-.23-0.16c-0.16-.23-0.29-0.47-0.45-0.7-0.45-.63-0.77-1.35-1.28-1.95C108.12,1932.12,108.2,1932,108.31,1931.93ZM53.14,1927a22.27,22.27,0,0,0,2.69,2.57c0.88,0.69,1.65,1.5,2.46,2.25l0.15,0.13a4.11,4.11,0,0,1-.39.54,8.84,8.84,0,0,0-.89,1.32c-0.17.27-.33,0.54-0.52,0.81-0.43-.41-0.87-0.81-1.31-1.2a13.73,13.73,0,0,1-1-1.06c-0.67-.74-1.38-1.44-2.06-2.17L51.11,1929l-0.27-.28c-0.12-.13-0.41-0.16-0.37-0.35a0.86,0.86,0,0,1,.39-0.37c0.23-.16.47-0.29,0.71-0.43l1.16-.65A0.28,0.28,0,0,1,53.14,1927Zm1.24,10.46,0,0a0.42,0.42,0,0,1-.26-0.17c-0.81-.79-1.63-1.55-2.4-2.38a20.87,20.87,0,0,0-1.83-1.71c-0.72-.62-1.34-1.33-2-2a0.34,0.34,0,0,1,0-.54,27,27,0,0,1,2-2c0.15-.12.29-0.25,0.4,0,0.75,0.55,1.28,1.34,2,1.9a2.19,2.19,0,0,1,.36.41c0.34,0.44.75,0.82,1.06,1.28a8.61,8.61,0,0,0,1.39,1.42,4.73,4.73,0,0,1,.9.84,1,1,0,0,0,.27.19l0.16,0.14c-0.11.15-.23,0.29-0.35,0.42a2.89,2.89,0,0,0-.52.63,3.88,3.88,0,0,1-.6.8A4.9,4.9,0,0,0,54.38,1937.46Zm-14.74-9.39c-0.15.23-.21,0.27-0.43,0.08s-0.49-.5-0.76-0.72a14.8,14.8,0,0,0-1.33-1.09,1.92,1.92,0,0,1-.76-1.45c0-.14-0.06-0.29-0.1-0.43a4.3,4.3,0,0,1-.13-1.9c0.09-.61.35-1.16,0.42-1.77a0.92,0.92,0,0,1,.16-0.35,1.93,1.93,0,0,0,.43-1.06,1.15,1.15,0,0,1,.3-0.45,3.57,3.57,0,0,1,2.63-1.9,4.42,4.42,0,0,1,1.48,0,2,2,0,0,1,.77.45,9.29,9.29,0,0,1,1.81,1.44,0.18,0.18,0,0,0,0,0,10.52,10.52,0,0,1,2,1.83,2.14,2.14,0,0,1,.2.19c0.19,0.22.18,0.27,0,.43-0.67.49-1.35,1-2,1.47a14.56,14.56,0,0,0-2.11,2c-0.44.52-.9,1-1.38,1.5A9.4,9.4,0,0,0,39.64,1928.07Zm2,2.3a0.41,0.41,0,0,1-.2.37,0.68,0.68,0,0,1-.6-0.22,1.48,1.48,0,0,1-.47-1.13,1.15,1.15,0,0,1,.26-1.09c0.25-.41.51-0.81,0.75-1.22a8.2,8.2,0,0,1,1.61-1.88c0.54-.5,1.06-1,1.61-1.5a10.83,10.83,0,0,1,1.28-1c0.37-.24.76-0.43,1.14-0.64a0.42,0.42,0,0,1,.55,0,1.37,1.37,0,0,0,.41,0,2.31,2.31,0,0,1,1.14,1,0.15,0.15,0,0,1-.09.23c-0.35.2-.69,0.42-1.05,0.61a10.61,10.61,0,0,0-1.61.95,10.75,10.75,0,0,0-1.45,1.34c-0.35.38-.76,0.7-1.09,1.1a6.59,6.59,0,0,1-.88.92,3.81,3.81,0,0,0-.54.81A4.63,4.63,0,0,0,41.62,1930.37Zm1.62,1.39c-0.12.16-.22,0.34-0.34,0.51s-0.21.2-.4,0-0.23-.24-0.37-0.34a0.45,0.45,0,0,1-.25-0.53,1.76,1.76,0,0,1,.43-1.41c0.29-.38.56-0.78,0.83-1.17a8.2,8.2,0,0,1,1.34-1.52c0.35-.32.65-0.71,1-1a9.61,9.61,0,0,1,2.41-1.87c0.36-.18.7-0.39,1-0.6a1.23,1.23,0,0,1,1.68.29,1.07,1.07,0,0,1,.43.62,1,1,0,0,1-.63.37,1.54,1.54,0,0,1-.54.21,2.63,2.63,0,0,0-.42.34,7.75,7.75,0,0,0-1.45,1,8.49,8.49,0,0,0-1.38,1.22,4.48,4.48,0,0,1-.65.6,12,12,0,0,0-1.7,1.92C43.92,1930.81,43.59,1931.29,43.24,1931.75ZM44.9,1934c-0.2.27-.17,0.26-0.43,0.09a3.06,3.06,0,0,1-1-1.53,0.43,0.43,0,0,1,.1-0.46c0.24-.3.47-0.61,0.72-0.9a8.7,8.7,0,0,0,.94-1.23,2.62,2.62,0,0,1,.32-0.38c0.69-.75,1.44-1.43,2.16-2.13,0.2-.19.43-0.35,0.65-0.52a9,9,0,0,1,2-1.29,1.69,1.69,0,0,1,.69-0.33,0.55,0.55,0,0,1,.21,0,10.47,10.47,0,0,1,1.21.64c0.18,0.15.26,0.28-.05,0.39a11.71,11.71,0,0,0-1.79,1.08c-0.57.31-1,.8-1.59,1.09a3,3,0,0,0-.74.57A14.42,14.42,0,0,0,45.9,1932a8.84,8.84,0,0,0-.6,1.18A3.57,3.57,0,0,1,44.9,1934Zm6.12,6c-0.46-.46-1-0.89-1.36-1.38s-0.9-.88-1.33-1.33-1.13-1.12-1.65-1.72a8.1,8.1,0,0,0-1.11-1.08,0.28,0.28,0,0,1-.11-0.38,3,3,0,0,1,.21-0.39c0.43-.65.85-1.3,1.29-1.94s0.48-.56.89-0.05,0.73,0.66,1,1.07,0.74,0.61,1.06,1c0.63,0.72,1.4,1.3,2,2a18.39,18.39,0,0,0,1.38,1.29c0.2,0.19.38,0.4,0.56,0.61l0.19,0.26a12,12,0,0,0-1.2,2.18c-0.16.43-.34,0.86-0.52,1.28Zm-9.59,49.65a3.41,3.41,0,0,0,.82-0.73c0.76-.81,1.5-1.64,2.34-2.38,0.42-.37.85-0.72,1.27-1.09,0.79-.7,1.57-1.4,2.34-2.11,0.56-.51,1.14-1,1.72-1.48l1.18-1a0.55,0.55,0,0,1,.15-0.06l0,0.16a5,5,0,0,1,0,.55,2.63,2.63,0,0,0,1,2.06c0.13,0.12.14,0.19,0,.29-0.76.5-1.33,1.22-2.09,1.72a0.68,0.68,0,0,0-.18.21,1.5,1.5,0,0,1-.58.51,10,10,0,0,0-1.35,1c-0.46.37-1,.69-1.4,1.08a3.89,3.89,0,0,0-.75.68,2.74,2.74,0,0,1-.82.71c-0.35.22-.49,0.63-0.84,0.85a4.7,4.7,0,0,0-.94.84c-0.15.17-.22,0.14-0.29-0.09a1.75,1.75,0,0,1-.06-0.49,0.74,0.74,0,0,0-.88-0.88l-0.56,0a0.21,0.21,0,0,1-.19-0.17A0.14,0.14,0,0,1,41.43,1989.66Zm13.64-3.34a8.2,8.2,0,0,0-.92.79c-0.84.67-1.67,1.35-2.51,2-0.18.14-.3,0.32-0.47,0.46-0.88.7-1.76,1.41-2.61,2.15a26.68,26.68,0,0,0-2,1.84c-0.21.23-.46,0.43-0.69,0.64a0.2,0.2,0,0,1-.15,0,0.1,0.1,0,0,1-.07-0.13,1,1,0,0,1,0-.27,3.4,3.4,0,0,0,0-1.3,0.29,0.29,0,0,0-.28-0.34,0.66,0.66,0,0,1-.36-0.13,0.48,0.48,0,0,0-.51-0.06,2.9,2.9,0,0,1-.92-0.15c-0.06,0-.06-0.09,0-0.13a7.7,7.7,0,0,1,.64-0.68,4.08,4.08,0,0,0,.71-0.54c0.52-.55,1.11-1,1.67-1.54s1-.84,1.54-1.26c0.78-.65,1.6-1.25,2.38-1.91a26,26,0,0,1,2-1.73c0.09-.06.18-0.18,0.29-0.09a6.32,6.32,0,0,0,1.21.54,9.55,9.55,0,0,0,1.23.51,4.08,4.08,0,0,1,.5.24c0.07,0,.15.08,0.07,0.15a2,2,0,0,1-.65.56h0A0.27,0.27,0,0,1,55.07,1986.33Zm-7,10.89-1.77.9c-0.62.31-1.26,0.6-1.88,0.92-0.43.23-.88,0.45-1.3,0.71a5,5,0,0,1-1.16.52,14.16,14.16,0,0,0-2.37,1,15.07,15.07,0,0,1-1.92.86,8.53,8.53,0,0,0-1.23.64c-0.69.37-1.42,0.63-2.13,1a6.82,6.82,0,0,0-.8.39c-0.31.19-.68,0.18-1,0.36a0.19,0.19,0,0,1-.23-0.11,1.58,1.58,0,0,1,0-1.89c0.53-.81,1.14-1.56,1.66-2.37s1.16-1.54,1.7-2.34c0.87-1.29,1.77-2.57,2.52-3.93,0.6-1.09,1.4-2,2.05-3.09a0.85,0.85,0,0,1,.87-0.36,4.06,4.06,0,0,1,1.09.16c0.33,0.11.38,0.17,0.31,0.52a6.77,6.77,0,0,0-.2.85,1.36,1.36,0,0,0,0,.27,0.15,0.15,0,0,0,.17.16c0.26,0,.51,0,0.77,0a6.38,6.38,0,0,1,1.38.15,1.5,1.5,0,0,1,.22,0,0.67,0.67,0,0,1,.47.08,1.59,1.59,0,0,1,0,.62,4.47,4.47,0,0,1-.17,1.07,1,1,0,0,0,0,.55,0.39,0.39,0,0,0,.42.37,2.1,2.1,0,0,0,.77,0,4,4,0,0,1,1.53,0,0.23,0.23,0,0,1,.21.23c0.09,0.41.15,0.83,0.24,1.25A0.38,0.38,0,0,1,48,1997.21Zm11.43-9.95c-0.76.54-1.36,1.25-2.1,1.81-0.44.33-.86,0.7-1.29,1.05a21.51,21.51,0,0,0-1.84,1.7,16.84,16.84,0,0,1-1.59,1.47c-0.87.69-1.66,1.47-2.49,2.2-0.36.32-.76,0.59-1.14,0.88a1.21,1.21,0,0,1-.24.11,0.19,0.19,0,0,1-.12-0.13c0-.2,0-0.4-0.07-0.6a3.68,3.68,0,0,0-.07-0.49c-0.11-.42-0.18-0.45-0.62-0.46-0.68,0-1.36-.07-2-0.11,0,0-.12,0-0.12,0s0.08,0,.13-0.06a1.1,1.1,0,0,0,.56-0.34,18.12,18.12,0,0,1,1.39-1.27c0.42-.33.77-0.72,1.17-1.06,0.57-.47,1.1-1,1.65-1.46,0.05,0,.13-0.07.18-0.12,0.42-.34.85-0.66,1.25-1s1.07-.85,1.61-1.26a19.6,19.6,0,0,0,1.83-1.61c0.25-.25.52-0.47,0.78-0.71a0.25,0.25,0,0,1,.34,0c0.71,0.36,1.45.63,2.19,0.92a5.27,5.27,0,0,1,.68.36C59.61,1987.1,59.57,1987.19,59.46,1987.27Zm5.93,12.29a0.2,0.2,0,0,1-.13.22,0.25,0.25,0,0,1-.28-0.13,0.74,0.74,0,0,1-.09-0.42c0-.09,0-0.24.12-0.26a0.34,0.34,0,0,1,.4.26C65.41,1999.33,65.39,1999.44,65.39,1999.55Zm1-.48c-0.09.12-.16,0.25-0.24,0.37a0.27,0.27,0,0,1-.09.05,0.05,0.05,0,0,1-.07-0.05,0.69,0.69,0,0,1,.23-0.53,0.16,0.16,0,0,1,.2,0C66.52,1999,66.47,1999,66.44,1999.08Zm1.21,0.69a2.83,2.83,0,0,0-.43,1.84,0.23,0.23,0,0,1-.23.25,0.28,0.28,0,0,1-.34-0.19,2.48,2.48,0,0,1-.14-0.83,3.51,3.51,0,0,1,.34-1.37,0.48,0.48,0,0,1,.45-0.27,0.39,0.39,0,0,1,.34.31A0.23,0.23,0,0,1,67.65,1999.77Zm1.54,2.47c-0.09.24-.11,0.44-0.39,0.31a0.78,0.78,0,0,1-.95-0.61,2.15,2.15,0,0,1,.46-2,1.16,1.16,0,0,1,1.42-.14,0.59,0.59,0,0,1,.19.91A8.21,8.21,0,0,0,69.19,2002.25Zm2.43,1.39c0,0.35,0,.38-0.36.37a2.16,2.16,0,0,1-1.26-.34,0.8,0.8,0,0,1-.36-1,5.52,5.52,0,0,1,.82-1.79c0.24-.35.4-0.74,0.61-1.11a0.67,0.67,0,0,1,1.25,0,2,2,0,0,0,.14.24,0.34,0.34,0,0,1,0,.49,4.23,4.23,0,0,0-.83,2.92C71.6,2003.49,71.61,2003.56,71.62,2003.64Zm-1.12-4.49a0.18,0.18,0,0,1,.07-0.06,0.17,0.17,0,0,1,.13.21,0.1,0.1,0,0,1-.07.06A0.18,0.18,0,0,1,70.49,1999.14Zm3,5.77c-0.69.55-.69,0.29-1-0.2a2.06,2.06,0,0,1-.28-1.45,5.83,5.83,0,0,1,.22-1.52,1.23,1.23,0,0,1,.52-0.88,0.36,0.36,0,0,0,.16-0.21,1.17,1.17,0,0,1,.85-0.72,0.71,0.71,0,0,1,1,.63,0.27,0.27,0,0,1-.08.2,6.61,6.61,0,0,0-1,2.22,1.47,1.47,0,0,0,0,.93A0.82,0.82,0,0,1,73.52,2004.91Zm4-2.41a3.61,3.61,0,0,0-.24,2.27c0.05,0.22,0,.3-0.25.31H76.84l-0.44,0a0.71,0.71,0,0,1-.7-0.72c0-.33-0.05-0.66-0.08-1a2,2,0,0,0,0-.33,0.18,0.18,0,0,0-.12-0.11c-0.06,0-.08.06-0.09,0.1a0.29,0.29,0,0,0,0,.16,1.54,1.54,0,0,1,0,1,0.92,0.92,0,0,0,0,.49,0.4,0.4,0,0,1,0,.16l-0.15-.07a1.14,1.14,0,0,1-.59-1.21,12.93,12.93,0,0,1,.26-1.59,2.81,2.81,0,0,1,1-1.48,0.6,0.6,0,0,1,.89,0,1.74,1.74,0,0,1,.83,1.47A1.15,1.15,0,0,1,77.51,2002.5Zm-2.39-3.41L75,1999c0-.05,0-0.09,0-0.08a0.31,0.31,0,0,1,.12.08A0.35,0.35,0,0,1,75.11,1999.09ZM80.8,2005c0,0.35-.1.4-0.46,0.4a0.71,0.71,0,0,1-.77-0.63,0.41,0.41,0,0,0,0-.11,1.35,1.35,0,0,0-.24-0.54c-0.26.16,0,.37,0,0.55a1.72,1.72,0,0,0,0,.22,0.31,0.31,0,0,1-.08.31,0.32,0.32,0,0,1-.35-0.21,2.78,2.78,0,0,1-.16-0.8,4.3,4.3,0,0,1,.23-1.46c0-.07,0-0.14,0-0.22a0.09,0.09,0,0,0-.05-0.07,0.11,0.11,0,0,0-.1,0,0.4,0.4,0,0,0-.07.14,6.5,6.5,0,0,0-.37,1.78,0.45,0.45,0,0,1-.16.53c-0.14.05-.29-0.21-0.35-0.56a1.71,1.71,0,0,1,0-.22c0-.13,0-0.26,0-0.39a3.17,3.17,0,0,1,.22-1.13c0.23-.57.49-1.12,0.77-1.66a1.22,1.22,0,0,1,.18-0.28,0.35,0.35,0,0,1,.57,0,9.05,9.05,0,0,1,1,1.62,1.65,1.65,0,0,1,.11.37A8,8,0,0,1,80.8,2005Zm-0.13-4a0.11,0.11,0,0,1,0,.18c-0.07,0-.12,0-0.14-0.09a0.37,0.37,0,0,1,0-.13A0.54,0.54,0,0,1,80.67,2001Zm-0.06-.82a0.1,0.1,0,0,1,0-.08c0.13,0,.07.13,0.12,0.19a0.27,0.27,0,0,1-.05.09C80.6,2000.36,80.62,2000.26,80.61,2000.18Zm3.69,3.27a3,3,0,0,1-.2,1,0.54,0.54,0,0,1-.17.28,0.23,0.23,0,0,1-.14,0,0.12,0.12,0,0,1,0-.1,7.6,7.6,0,0,0,.07-1.08,2.18,2.18,0,0,0-.23-0.9c0-.11-0.17-0.12-0.29-0.1a0.16,0.16,0,0,0-.13.2,15,15,0,0,1,.05,1.5,3.7,3.7,0,0,1-.15.93,0.16,0.16,0,0,1,0,.14,2.73,2.73,0,0,1-.86,0,1.89,1.89,0,0,1-.76-1.69,1,1,0,0,0,0-.39,2,2,0,0,1,.44-1.5c0.19-.32.41-0.62,0.6-0.94s0.49-.43.78-0.1a2.89,2.89,0,0,1,.92,1.84A4.87,4.87,0,0,1,84.3,2003.45Zm0.33-2.13c-0.09,0-.07,0-0.08-0.08a0.09,0.09,0,0,1,.07-0.11,0.18,0.18,0,0,1,.06.06A0.2,0.2,0,0,1,84.63,2001.31Zm2.54,2.73a1.57,1.57,0,0,1-.16.46,0.51,0.51,0,0,0-.12.41,0.12,0.12,0,0,1-.12.15,0.35,0.35,0,0,1-.16,0c-0.1-.06,0-0.13,0-0.18a2.54,2.54,0,0,0,.12-1.92c0-.14-0.12-0.14-0.24-0.06a0.53,0.53,0,0,0-.17.5,2.87,2.87,0,0,1-.2,1.25,0.31,0.31,0,0,1-.32.24c-0.3,0-.59,0-0.89,0s-0.3-.13-0.21-0.36a3.48,3.48,0,0,0,.18-1.25,5.64,5.64,0,0,0-.14-1.1c0-.17,0-0.31.23-0.2a0.15,0.15,0,0,0,.23-0.15,2.14,2.14,0,0,1,.64-1.13,0.22,0.22,0,0,1,.33-0.06,1.82,1.82,0,0,1,1,1.59A4.57,4.57,0,0,1,87.16,2004Zm2,0.07a3.33,3.33,0,0,1-.38.86c-0.08.12-.14,0.15-0.26,0.07l-0.64-.43a0.26,0.26,0,0,1-.13-0.28c0.11-.55,0-1.1.08-1.66a2.67,2.67,0,0,0-.07-0.6,1.83,1.83,0,0,1,.71-1.59,0.39,0.39,0,0,1,.51,0,0.7,0.7,0,0,1,.25.36,4.73,4.73,0,0,1,.33,1.56A5,5,0,0,1,89.16,2004.11Zm2.18-.5a0.44,0.44,0,0,1-.39.4,2.81,2.81,0,0,1-1,.15c-0.14,0-.21-0.1-0.16-0.23,0.1-.32.13-0.66,0.23-1a2.45,2.45,0,0,0,0-1.26,1.72,1.72,0,0,1-.08-0.32,0.71,0.71,0,0,1,0-.52,1.5,1.5,0,0,1,.57-0.33,0.86,0.86,0,0,1,.91.7,4.18,4.18,0,0,1,0,1.23A3.39,3.39,0,0,1,91.34,2003.61Zm1.92-1.61a2.18,2.18,0,0,0-.32.64,0.29,0.29,0,0,1-.34.2,0.37,0.37,0,0,1-.4-0.23c-0.13-.52-0.24-1-0.36-1.56,0-.18,0-0.36.27-0.27a0.15,0.15,0,0,0,.23-0.15,0.47,0.47,0,0,1,.32-0.41,0.53,0.53,0,0,1,.81.36A1.49,1.49,0,0,1,93.26,2002Zm1.75-1.6a6.59,6.59,0,0,1-.75,1.76,0.27,0.27,0,0,1-.16.14,0.2,0.2,0,0,1-.21,0,0.12,0.12,0,0,1,0-.15c0.09-.13-0.06-0.34.17-0.43s0.06-.19.05-0.29a4.69,4.69,0,0,0-.2-1.24,0.22,0.22,0,0,1,.07-0.29,0.12,0.12,0,0,0,.19,0c0.07-.08.11-0.19,0.18-0.27,0.22-.25.43-0.22,0.6,0.09A1,1,0,0,1,95,2000.41Zm1.37-.94a0.21,0.21,0,0,1-.1,0l0.19-.18s0.06,0,.08,0A0.29,0.29,0,0,1,96.39,1999.47Zm18-4.33c0,0.19,0,.37,0,0.56a0.21,0.21,0,0,1-.15.21,0.14,0.14,0,0,1-.18-0.09,3.41,3.41,0,0,0-.81-0.75c-0.88-.68-1.78-1.34-2.6-2.1-0.41-.38-0.79-0.78-1.2-1.16-0.77-.71-1.54-1.43-2.33-2.13-0.57-.5-1.09-1-1.63-1.57l-1.1-1.08,0,0h0.38a3.8,3.8,0,0,0,1.83-.33,5.4,5.4,0,0,1,1-.41l0.24-.08a14.89,14.89,0,0,1,1.34,1.31,0.68,0.68,0,0,0,.22.16,1.5,1.5,0,0,1,.56.52,10,10,0,0,0,1.14,1.25c0.41,0.42.78,0.88,1.21,1.29a3.89,3.89,0,0,0,.75.69,2.74,2.74,0,0,1,.78.75c0.25,0.33.68,0.43,0.93,0.76a4.7,4.7,0,0,0,.93.86c0.18,0.14.16,0.2-.06,0.3a1.75,1.75,0,0,1-.49.11A0.74,0.74,0,0,0,114.39,1995.13Zm-4.77-9.81a1.43,1.43,0,0,0,.8-1.06c0-.21.09-0.43,0.13-0.64l2,2.08c0.15,0.16.35,0.26,0.51,0.43,0.79,0.81,1.57,1.62,2.4,2.39a26.67,26.67,0,0,0,2,1.8c0.25,0.19.48,0.41,0.71,0.63a0.2,0.2,0,0,1,.05.14,0.1,0.1,0,0,1-.12.08,1,1,0,0,1-.28,0,3.4,3.4,0,0,0-1.3.08,0.29,0.29,0,0,0-.31.32,0.66,0.66,0,0,1-.09.37,0.48,0.48,0,0,0,0,.51,2.9,2.9,0,0,1-.06.93c0,0.06-.08.07-0.12,0a7.71,7.71,0,0,1-.74-0.57,4.08,4.08,0,0,0-.6-0.65c-0.6-.47-1.14-1-1.69-1.52s-0.93-.95-1.4-1.41c-0.72-.72-1.4-1.48-2.13-2.19-0.37-.36-0.76-0.7-1.14-1.06Zm11.35,3.19c0.36,0.56.71,1.11,1.06,1.68s0.72,1.2,1.1,1.78c0.27,0.41.53,0.83,0.83,1.22a5,5,0,0,1,.62,1.11,14.16,14.16,0,0,0,1.25,2.26,15.07,15.07,0,0,1,1,1.83,8.53,8.53,0,0,0,.76,1.16c0.44,0.65.77,1.35,1.16,2a6.83,6.83,0,0,0,.46.76c0.22,0.29.24,0.66,0.46,0.94a0.19,0.19,0,0,1-.09.24,1.58,1.58,0,0,1-1.87.22c-0.85-.45-1.66-1-2.52-1.42s-1.64-1-2.49-1.46c-1.37-.74-2.73-1.51-4.15-2.13-1.14-.49-2.17-1.2-3.28-1.74a0.85,0.85,0,0,1-.44-0.83,4.05,4.05,0,0,1,.06-1.1c0.08-.34.14-0.4,0.49-0.36a6.77,6.77,0,0,0,.87.12,1.36,1.36,0,0,0,.27,0,0.15,0.15,0,0,0,.15-0.19c-0.07-.25,0-0.51-0.07-0.77a6.38,6.38,0,0,1,0-1.38,1.5,1.5,0,0,1,0-.22,0.67,0.67,0,0,1,0-.48,1.59,1.59,0,0,1,.61-0.07,4.47,4.47,0,0,1,1.09.07,1,1,0,0,0,.55-0.07,0.39,0.39,0,0,0,.32-0.45,2.1,2.1,0,0,0-.1-0.77,4,4,0,0,1-.1-1.53,0.23,0.23,0,0,1,.2-0.23l1.22-.35A0.38,0.38,0,0,1,121,1988.51Zm-7.83-7.32a21.51,21.51,0,0,0,1.87,1.66,16.84,16.84,0,0,1,1.62,1.44c0.78,0.8,1.62,1.51,2.43,2.27,0.35,0.33.66,0.7,1,1.05a1.21,1.21,0,0,1,.13.23,0.19,0.19,0,0,1-.11.13l-0.59.13a3.68,3.68,0,0,0-.48.12c-0.4.15-.43,0.23-0.4,0.66,0,0.68.06,1.36,0.09,2,0,0,0,.12,0,0.12s-0.06-.08-0.07-0.13a1.1,1.1,0,0,0-.39-0.52,18.12,18.12,0,0,1-1.4-1.26c-0.36-.39-0.79-0.69-1.16-1.06-0.52-.52-1.07-1-1.61-1.5-0.05,0-.08-0.12-0.13-0.17-0.38-.38-0.74-0.78-1.13-1.15s-0.94-1-1.41-1.48c-0.22-.23-0.45-0.46-0.68-0.68,0.18-1,.35-2,0.59-2.94a4.62,4.62,0,0,0,.11-0.7c0.32,0.27.56,0.47,0.62,0.54C112.34,1980.42,112.75,1980.8,113.14,1981.2Zm-0.52-29.29a12.3,12.3,0,0,1-.07,2.39,0.58,0.58,0,0,0,0,.11,9.07,9.07,0,0,1-.32,2.29,1,1,0,0,0,0,.17c0,1.07-.32,2.12-0.42,3.18a17.46,17.46,0,0,1-.37,2.07c-0.14.63-.21,1.28-0.39,1.9a16,16,0,0,1-.58,2.42l-0.28.61a1.83,1.83,0,0,0-.2.4,12.57,12.57,0,0,1-.85,2.22c-0.38,1-.8,1.95-1.21,2.92-0.31.75-.7,1.47-1,2.24a0.18,0.18,0,0,1-.18.17,0.27,0.27,0,0,1-.12-0.18,0.87,0.87,0,0,1,.06-0.64,0.82,0.82,0,0,1,.23-0.51,1.79,1.79,0,0,0,.46-0.8,12.69,12.69,0,0,1,.63-1.54,2.58,2.58,0,0,0,.23-0.91,10.53,10.53,0,0,1,.81-2.53,26.59,26.59,0,0,0,1.42-4.59c0.13-.59.27-1.17,0.39-1.76a14.68,14.68,0,0,0,.4-2.57,1.31,1.31,0,0,1,.19-0.8,0.69,0.69,0,0,0,.07-0.32c0.11-1.13.22-2.26,0.34-3.39a0.87,0.87,0,0,0,0-.38,3.39,3.39,0,0,1,0-1.37,2.27,2.27,0,0,0,0-.32,3.74,3.74,0,0,1,0-1,1.55,1.55,0,0,0-.12-0.76,0.2,0.2,0,0,0-.25-0.15,0.18,0.18,0,0,0-.16.2,3.68,3.68,0,0,1,.06.49c0,0.21.1,0.49-.25,0.58-0.11,0-.07.18-0.06,0.3,0,0.83,0,1.67,0,2.5,0,0,0,.13-0.07.11a0.15,0.15,0,0,1-.08-0.13,1.59,1.59,0,0,0-.06-0.74,0.13,0.13,0,0,0-.17-0.1,0.18,0.18,0,0,0-.12.1,1.56,1.56,0,0,0,0,.28c0,0.54-.06,1.07-0.09,1.61a2.74,2.74,0,0,1,0,.33c0,0.05,0,.12-0.1.09a0.16,0.16,0,0,1-.09-0.11c0-.17,0-0.33,0-0.5a3.11,3.11,0,0,0,0-.39,0.19,0.19,0,0,0-.24-0.17,0.18,0.18,0,0,0-.18.23,9.57,9.57,0,0,1-.22,3.26c0,0.16-.06.33-0.08,0.49s0,0.19-.14.18a0.27,0.27,0,0,1-.28-0.28,11.9,11.9,0,0,0,.26-1.92c0-.05,0-0.11,0-0.16a0.26,0.26,0,0,0-.23-0.32c-0.19,0-.18.16-0.19,0.29a16.94,16.94,0,0,0-.13,1.77c0,0.07,0,.16-0.12.12a0.15,0.15,0,0,1-.05-0.14,1.49,1.49,0,0,0,.08-0.71,0.48,0.48,0,0,0-.1-0.31,0.17,0.17,0,0,0-.19-0.08,0.16,0.16,0,0,0-.14.15c0,0.07,0,.15,0,0.22a11.07,11.07,0,0,1-.27,2.91,0.43,0.43,0,0,1-.2.37c-0.32.15-.46,0.08-0.49-0.28a2.37,2.37,0,0,1,0-.38,0.35,0.35,0,0,0-.13-0.34,0.29,0.29,0,0,1,0-.13,0.29,0.29,0,0,1,0,.13,1.81,1.81,0,0,0-.23,1,1,1,0,0,1,0,.22,0.19,0.19,0,0,1-.24.09c-0.14,0,0-.12,0-0.15a1,1,0,0,0,0-.53,11.09,11.09,0,0,0,.1-1.14,0.13,0.13,0,0,0-.1-0.17,0.15,0.15,0,0,0-.21.12c0,0.31-.07.62-0.1,0.94a0.61,0.61,0,0,1-.05.14c-0.06,0,0-.09,0-0.13a3.19,3.19,0,0,1,0-.78,1.82,1.82,0,0,0,0-.44,0.14,0.14,0,0,0-.11-0.17,0.18,0.18,0,0,0-.22.12,0.86,0.86,0,0,0,0,.22l-0.11,1.16c0,0.05,0,.11,0,0.16a0.22,0.22,0,0,1,0-.19c0-.13,0-0.26,0-0.39a0.4,0.4,0,0,0-.08-0.25c-0.43-.15-0.24-0.49-0.21-0.73,0-.46.17-0.9,0.25-1.36,0.05-.28,0-0.31-0.27-0.31-0.15,0-.2,0-0.17-0.18l0-.11c0-.18,0-0.35-0.2-0.38a0.3,0.3,0,0,0-.33.31,6.22,6.22,0,0,0-.45,1.57,0.07,0.07,0,0,1-.11.06,0.17,0.17,0,0,1-.07-0.13,20.9,20.9,0,0,1,.67-2.15,0.47,0.47,0,0,0,.06-0.21,0.23,0.23,0,0,0-.16-0.26,0.22,0.22,0,0,0-.27.13,8.59,8.59,0,0,0-.42,1c-0.19.64-.33,1.29-0.5,1.93a4.39,4.39,0,0,0-.1.71,2.23,2.23,0,0,0,.52,1.54,1.55,1.55,0,0,0,.24.31,8.43,8.43,0,0,1,1.21,1.7,1.13,1.13,0,0,1,.18.4q0.28,1,.45,2.11a12.38,12.38,0,0,0,.29,1.3,15.55,15.55,0,0,1,.22,2.26,2.09,2.09,0,0,1-.08.55c-0.14.95-.07,1.92-0.23,2.87a4.38,4.38,0,0,0,0,.67c0,0.1.05,0.25-.1,0.28s-0.14-.1-0.18-0.18a1.61,1.61,0,0,0-.38-0.47,0.5,0.5,0,0,0-.35-0.16,0.27,0.27,0,0,0-.28.14,0.19,0.19,0,0,0,.11.23,3.07,3.07,0,0,1,.79,1.25c0.06,0.17.14,0.34,0.2,0.52a1.81,1.81,0,0,0,.3.58c0.64,0.35,1.5.45,2.12,0.74a2.88,2.88,0,0,1,1.71,2.48s0,0,0,.06V1979a1.09,1.09,0,0,1-.07.4s0,0.07,0,.1c-0.1.94-.31,1.86-0.5,2.79a5.93,5.93,0,0,1-.3,1.61,0.42,0.42,0,0,1-.29.31l-0.61.31a0.14,0.14,0,0,0-.16-0.09c-0.09,0-.23,0-0.26.13a0.16,0.16,0,0,0,0,.14,10.69,10.69,0,0,1-1.33.57,1.35,1.35,0,0,0-.4.18,2.68,2.68,0,0,1-1.79.47,1.69,1.69,0,0,1-.8,0l0.53-.11a4,4,0,0,0-1.37.07,1.13,1.13,0,0,0-.85.55c0,0.06-.09.12-0.12,0.19a1.68,1.68,0,0,1-1.32.91,11.76,11.76,0,0,0-1.65.46,5.91,5.91,0,0,0-1.57.77c-0.18.13-.2-0.07-0.29-0.1h0a1,1,0,0,1-.39.14c-0.15-.12,0-0.31.06-0.46a4.58,4.58,0,0,1,.93-1.56l0.08-.08a0.31,0.31,0,0,0,.05-0.44c-0.11-.13-0.22-0.11-0.42.07a4.52,4.52,0,0,0-1.54,2.93c-0.05.46-.05,0.94-0.14,1.38a4.77,4.77,0,0,0,.18,2.07c0.23,1,.44,1.91.62,2.87,0.13,0.67.23,1.35,0.33,2a0.13,0.13,0,0,1-.13.18c-0.26.06-.27,0.08-0.16,0.33,0,0.09.06,0.13-.05,0.14a0.19,0.19,0,0,0-.21.21,0.25,0.25,0,0,0,.22.22c0.07,0,.2,0,0.17.14a2.19,2.19,0,0,0-.6.4A0.12,0.12,0,0,1,96,1999a0.16,0.16,0,0,1,0-.11,0.7,0.7,0,0,0-.08-0.8c-0.05-.16-0.11-0.4-0.36-0.13-0.1.1-.21-0.1-0.32-0.14a0.22,0.22,0,0,0-.26,0,0.17,0.17,0,0,0,.06.24c0.09,0.07.19,0.12,0.27,0.19a0.09,0.09,0,0,1,0,.17c-0.13.08-.18,0.18-0.05,0.31a0.16,0.16,0,0,1,0,.24,0.22,0.22,0,0,1-.26,0,2.09,2.09,0,0,0-.54-0.11,0.69,0.69,0,0,0-.62.28c0,0.06-.06.14-0.14,0.08s0-.12,0-0.17a1.57,1.57,0,0,1,.46-0.54,0.13,0.13,0,0,0,0-.1,0.1,0.1,0,0,0-.13-0.06,1.35,1.35,0,0,1-.67.18,0.19,0.19,0,0,0-.09.12,1.16,1.16,0,0,0,0,.33c0,0.25-.06.35-0.31,0.29a0.16,0.16,0,0,0-.19.07,0.42,0.42,0,0,1-.39.22,0.48,0.48,0,0,0-.37.37,0.5,0.5,0,0,1,.39-0.59s0.11,0,.09-0.08a0.28,0.28,0,0,0-.16,0,0.11,0.11,0,0,1-.12-0.07,0.19,0.19,0,0,1,.11-0.12,2.46,2.46,0,0,0,.57-0.19c0.13-.11.13-0.21,0-0.29a0.92,0.92,0,0,0-.2-0.09c-0.13,0-.22,0-0.19.16s-0.16.16-.25,0.22-0.11,0-.12-0.11a0.26,0.26,0,0,1,.15-0.27c0.07,0,.1-0.13,0-0.14a0.39,0.39,0,0,1-.37-0.35c0-.12-0.16-0.2-0.23,0s-0.19.19-.35,0.1a0.14,0.14,0,0,0-.2,0,0.16,0.16,0,0,0,.1.22c0.15,0.08.29,0.15,0.43,0.24a0.17,0.17,0,0,1,0,.15c0,0.09-.1.07-0.17,0a1.48,1.48,0,0,0-.24-0.13,0.14,0.14,0,0,0-.18.07,0.15,0.15,0,0,0,0,.2c0.17,0.12.34,0.21,0.51,0.32a0.11,0.11,0,0,1,0,.15,0.1,0.1,0,0,1-.14,0l0,0c-0.1-.08-0.23-0.2-0.34-0.08s0,0.27.09,0.38l0.13,0.11a0.12,0.12,0,0,1,0,.14,0.11,0.11,0,0,1-.09,0,3.08,3.08,0,0,0-1.36.21c-0.08,0-.19.08-0.22-0.05a0.21,0.21,0,0,1,.13-0.23,1.26,1.26,0,0,1,.69-0.17,0.11,0.11,0,0,0,.11-0.1c0-.08-0.06-0.07-0.1-0.09a3.48,3.48,0,0,0-.65.08c-0.07,0-.16,0-0.16-0.11a0.12,0.12,0,0,1,.1-0.11l0.21-.06c0.1,0,.3,0,0.28-0.1a0.28,0.28,0,0,0-.38-0.12c-0.13,0-.3.17-0.37,0s0.14-.19.23-0.27l0.09-.06a0.43,0.43,0,0,0,.12-0.07c0-.07-0.08-0.06-0.13-0.05l-0.22,0a0.1,0.1,0,0,1-.13-0.07c0-.33-0.29-0.23-0.38-0.16a0.69,0.69,0,0,1-.75,0,0.32,0.32,0,0,0-.16,0,0.12,0.12,0,0,0-.07.08,0.11,0.11,0,0,0,0,.1s0.1,0,.14.08,0.41,0,.31.3c0,0.14.24,0.3,0,.47,0,0.42-.31.46-0.57,0.57a2.62,2.62,0,0,1-.43.1c0,0.06-.08.2-0.18,0.11s0-.19.06-0.25a1.41,1.41,0,0,1,.41-0.5s0.1-.07.05-0.13a0.25,0.25,0,0,0-.14-0.05,0.16,0.16,0,0,0-.11,0c-0.28.19-.32-0.08-0.42-0.23s0-.3.16-0.4l0.18-.13s0.11,0,.08-0.08a0.12,0.12,0,0,0-.1,0,1.55,1.55,0,0,0-.41.16c-0.17.12-.26,0.09-0.32-0.09a0.15,0.15,0,0,0-.13-0.15c-0.1,0-.09.1-0.09,0.17s-0.09.19-.25,0.14a1.77,1.77,0,0,1-.34-0.27,0.1,0.1,0,0,0-.14,0,0.25,0.25,0,0,0,0,.15,0.33,0.33,0,0,0,.23.28,0.59,0.59,0,0,1,.38.2c0.42,0.11.43,0.12,0.42,0.37a0.15,0.15,0,0,1,0,.1,0.1,0.1,0,0,1-.14,0l-0.35-.35a1.28,1.28,0,0,0-.22,0c-0.09,0-.14.06-0.08,0.14a1.41,1.41,0,0,0,.21.17,0.45,0.45,0,0,1,.18.19c0,0.1-.14.05-0.23,0.06a0.42,0.42,0,0,0-.23.14,7.82,7.82,0,0,0-1.05.78c-0.06.06-.14,0.14-0.23,0.07s0-.19,0-0.28a2.79,2.79,0,0,1,.45-0.39c0.08-.11,0-0.11-0.08-0.14s-0.25.24-.35,0.1,0.12-.21.26-0.24a0.84,0.84,0,0,0-.61.15c-0.13.05-.15,0-0.14-0.13a0.8,0.8,0,0,1,.15-0.35c0-.08,0-0.1-0.06-0.08-0.28.08-.21-0.09-0.17-0.24a0.58,0.58,0,0,1,.06-0.09s0.11,0,0-.07H84.34a0.21,0.21,0,0,1-.26-0.15,0.39,0.39,0,0,0-.34-0.24,0.46,0.46,0,0,0-.35.07c-0.12.08,0,.2,0,0.29a1.06,1.06,0,0,0,.16.29c0.18,0.26.18,0.25-.08,0.44s-0.14.2,0,.27a1.14,1.14,0,0,1,.62.59,0.26,0.26,0,0,1,0,.26,0.86,0.86,0,0,1-.15-0.15,1.16,1.16,0,0,0-.43-0.48A0.82,0.82,0,0,0,83,2000a3.06,3.06,0,0,0-.8.4l-0.45.41-0.52.72a0.25,0.25,0,0,1-.08,0,0.27,0.27,0,0,1,0-.11,1.39,1.39,0,0,1,.52-0.76,0.43,0.43,0,0,0,0-.12c-0.3,0-.3,0-0.19-0.22a1.77,1.77,0,0,1,.14-0.23l0.17-.21a0.38,0.38,0,0,0-.3.07,0.16,0.16,0,0,1-.09,0s0-.06,0-0.1a1.07,1.07,0,0,1,.38-0.47s0.1-.08.06-0.13a0.16,0.16,0,0,0-.15,0,0.79,0.79,0,0,1-.33,0A0.27,0.27,0,0,1,81,1999c0-.14-0.1-0.15-0.18-0.07s-0.14.06-.22,0-0.17-.32-0.33-0.15,0.08,0.21.16,0.31a1,1,0,0,1,.36.77,0.56,0.56,0,0,1,0,.1,0.23,0.23,0,0,1-.09-0.06c-0.08-.16-0.15-0.34-0.24-0.5a0.31,0.31,0,0,0-.14-0.07,0.3,0.3,0,0,0,0,.15c0.07,0.19.14,0.35-.13,0.47s0,0.18,0,.27a1.37,1.37,0,0,1,.42.74,0.29,0.29,0,0,1-.23-0.18L80,2000.4a0.75,0.75,0,0,0-.92-0.3,2,2,0,0,1-.49.09,0.29,0.29,0,0,1-.32-0.13,0.34,0.34,0,0,1,0-.41,1.16,1.16,0,0,1,.2-0.19c0.07-.08.26-0.2,0-0.2a0.11,0.11,0,0,1-.08-0.13,2.46,2.46,0,0,0,0-.39c0-.15.18-0.32,0-0.46a2.83,2.83,0,0,0-.18.38c0,0.15-.11.15-0.24,0.09s-0.25,0-.19.18,0,0.17-.12.17-0.23.08-.15,0.24a0.23,0.23,0,0,1,.05.1,1.52,1.52,0,0,1,.17.6,2.43,2.43,0,0,1-.47-0.36c-0.11-.05-0.22-0.09-0.29,0a0.2,0.2,0,0,1-.31.09,1,1,0,0,0-.94-0.11,0.17,0.17,0,0,1-.24-0.06,0.18,0.18,0,0,1,.1-0.18,1.47,1.47,0,0,0,.07-0.74,0.11,0.11,0,0,0-.14-0.06,0.49,0.49,0,0,1-.41-0.11,0.22,0.22,0,0,0-.25,0c-0.3.21-.31,0.25-0.09,0.51a3.05,3.05,0,0,0,.29.26,0.06,0.06,0,0,1,0,.05,0.19,0.19,0,0,1-.08.05,1.16,1.16,0,0,0-1.24,0c-0.12,0-.27.18-0.35,0.06a0.39,0.39,0,0,1,.2-0.3,0.54,0.54,0,0,0,.17-0.38,1,1,0,0,1,.46-0.53s0.14-.1,0-0.17a0.2,0.2,0,0,0-.16,0l-0.35.16a0.3,0.3,0,0,1-.15,0c-0.17,0-.37-0.37-0.48,0s-0.35.08-.39,0.3a0.59,0.59,0,0,1-.25.2c-0.14.1-.29,0.21-0.38-0.06a0.39,0.39,0,0,0-.07-0.09c-0.07-.1-0.3,0-0.27-0.21a0.57,0.57,0,0,1,.28-0.25l0.08-.08a1.28,1.28,0,0,0,.44-0.39c-0.21-.07-0.43,0-0.64-0.05a0.35,0.35,0,0,0-.25.1,0.21,0.21,0,0,1-.36,0,0.44,0.44,0,0,0-.18-0.13,0.19,0.19,0,0,0-.15,0c0,0.06,0,.06.08,0.09a0.5,0.5,0,0,1,.1.7,0.79,0.79,0,0,0-.16.35c0,0.16-.12.1-0.2,0.06a0.55,0.55,0,0,0-.65-0.12,0.17,0.17,0,0,0-.11.23c0,0.14,0,.2-0.18.16a5,5,0,0,0-.55-0.08,0.12,0.12,0,0,1-.11-0.1,0.12,0.12,0,0,1,.09-0.11,0.21,0.21,0,0,0,.11-0.11c0-.05-0.06-0.07-0.11-0.08H69.05s-0.12,0-.1-0.09a0.16,0.16,0,0,1,.06-0.09,3.18,3.18,0,0,0,.32-0.21c0.1-.09,0-0.09-0.07-0.12s-0.17-.09,0-0.18l0.2-.1s0.12-.07,0-0.09-0.38.12-.4-0.2c0-.06-0.1,0-0.14,0a1.51,1.51,0,0,0-.23.31c-0.09.18-.17,0.29-0.37,0.13a0.08,0.08,0,0,0-.12.06c0,0.17,0,.29-0.25.26s-0.11.07-.07,0.15l0.08,0.2s0,0.09,0,.09l-0.57-.11a0.2,0.2,0,0,1,0-.1,0.83,0.83,0,0,1,.12-0.11c-0.31-.14,0-0.38-0.09-0.56a0.27,0.27,0,0,1,.05-0.36c0.22-.17-0.16-0.28,0-0.43a0.17,0.17,0,0,0-.14,0,0.58,0.58,0,0,0-.27.27,0.49,0.49,0,0,1-.42.36,0.13,0.13,0,0,0,0,.25,0.34,0.34,0,0,1,.16.27c0.06,0.38.06,0.4-.32,0.48l-0.27.06c-0.1,0-.08.24-0.23,0.14a0.65,0.65,0,0,1,.1-0.25c0.1-.15.23-0.25-0.06-0.39s0-.38.06-0.56,0-.16-0.08-0.21a0.19,0.19,0,0,0-.25,0,0.54,0.54,0,0,0-.07.14c-0.1.23-.1,0.23-0.35,0.11a0.13,0.13,0,0,0-.15,0,0.09,0.09,0,0,0,0,.14c0.13,0.11.07,0.17,0,.25s-0.11.17,0,.26l0.29,0.26a0.22,0.22,0,0,1,.07.12c0,0.05-.09,0-0.14,0a1,1,0,0,1-.7-1.09,10.53,10.53,0,0,0,0-1.84,8.29,8.29,0,0,1,.13-2.43,3.91,3.91,0,0,1,.76-1.83,1.36,1.36,0,0,0,.4-1.16,0.86,0.86,0,0,1,.08-0.43,3.39,3.39,0,0,0-.19-2.43,1.78,1.78,0,0,1-.17-0.41,0.23,0.23,0,0,0-.31-0.21c-0.19.06-.16,0.23-0.12,0.37s0.08,0.21.11,0.31a5.25,5.25,0,0,1,.19,1.93,0.09,0.09,0,0,1-.09.1,0.14,0.14,0,0,1-.09-0.06,1.81,1.81,0,0,1-.1-0.2,4.32,4.32,0,0,0-1.65-1.84,5.52,5.52,0,0,0-1.28-.52,10.35,10.35,0,0,1-2.27-1,8.24,8.24,0,0,0-1.89-.78,3,3,0,0,1-.67-0.25c-1.23-.74-2.57-1.24-3.85-1.85l-0.3-.14a1.61,1.61,0,0,1-1-1.28,5.57,5.57,0,0,1-.12-1.1c0-.69-0.1-1.37,0-2.06a14.39,14.39,0,0,1,.56-2.77,3.61,3.61,0,0,1,1.06-1.66l1.42-1.24c0.25-.22.53-0.4,0.79-0.61,0.65-.52,1.27-1.08,1.88-1.64a2,2,0,0,0,.51-1.42,0.14,0.14,0,0,0-.11-0.16,0.16,0.16,0,0,0-.19.07,1.2,1.2,0,0,0-.19.58,1.32,1.32,0,0,1-.49.84,0.21,0.21,0,0,1-.14.06c-0.1,0-.09-0.1-0.1-0.17,0-.65-0.09-1.3-0.14-1.94a8.09,8.09,0,0,1,.59-3.54c0.28-.74.44-1.52,0.72-2.26a15.73,15.73,0,0,0,.66-2.24,10.55,10.55,0,0,1,.5-1.59,5.8,5.8,0,0,1,1-1.41,1,1,0,0,0,.25-0.79,12.33,12.33,0,0,0-.41-1.84c-0.18-.85-0.42-1.69-0.53-2.55a8,8,0,0,0-.46-1.76,0.37,0.37,0,0,0,0-.1,0.18,0.18,0,0,0-.25-0.05,0.15,0.15,0,0,0-.07.19c0.07,0.19.15,0.38,0.23,0.56a5.12,5.12,0,0,1,.33,1.85,0.14,0.14,0,0,1-.09.17,0.16,0.16,0,0,1-.18-0.09c-0.06-.36-0.31-0.63-0.39-1,0-.05,0-0.11,0-0.16a0.19,0.19,0,0,0-.21-0.2,0.2,0.2,0,0,0-.12.27c0.08,0.27.13,0.54,0.23,0.8a7.16,7.16,0,0,1,.35,1.39s0,0.11,0,.12a0.11,0.11,0,0,1-.11-0.1,8.69,8.69,0,0,1-.29-0.9,0.15,0.15,0,0,0-.11-0.1,0.16,0.16,0,0,0-.12.1,1.79,1.79,0,0,0,0,.71c0.16,0.53.28,1.07,0.41,1.61a0.87,0.87,0,0,1,0,.63c-0.36,0-.3-0.32-0.38-0.51a1.19,1.19,0,0,0-.23-0.44,0.19,0.19,0,0,0-.15,0,0.15,0.15,0,0,0-.11.17c0,0.18.07,0.36,0.11,0.54,0.09,0.36.17,0.72,0.28,1.07a0.4,0.4,0,0,1-.14.44c-0.09.09-.16,0.15-0.26,0a0.19,0.19,0,0,0-.28-0.1,0.24,0.24,0,0,0-.07.34,1.8,1.8,0,0,1,.11,1.14,0.89,0.89,0,0,1,.05.51c-0.21.15-.32-0.16-0.48-0.26a0.2,0.2,0,0,0-.3.19,3.71,3.71,0,0,0,.06.55,0.42,0.42,0,0,1,0,.32c-0.08.1-.16-0.08-0.27,0a0.15,0.15,0,0,0-.14.14,1.54,1.54,0,0,0,0,.28c0,0.11.05,0.22,0.08,0.32a0.74,0.74,0,0,1-.06.5,0.76,0.76,0,0,1-.14-0.41c-0.05-.18-0.08-0.36-0.12-0.54a0.21,0.21,0,0,0-.2-0.17,0.16,0.16,0,0,0-.19.16,0.35,0.35,0,0,1,0,.11,0.25,0.25,0,0,1-.11.11,0.1,0.1,0,0,1-.12-0.09c0-.09,0-0.18-0.06-0.27a0.12,0.12,0,0,0-.24,0,1,1,0,0,0,0,.6,0.14,0.14,0,0,1-.11.17,0.15,0.15,0,0,1-.17-0.11,2.36,2.36,0,0,1-.06-0.61c0-.26-0.14-0.31-0.35-0.15a0.16,0.16,0,0,1-.21,0c-0.22-.09-0.32,0-0.33.19,0,0.05,0,.11,0,0.16,0,0.24-.07.41-0.2,0.38s-0.14-.19-0.15-0.32c0-.33-0.07-0.66-0.12-1a0.61,0.61,0,0,0-.12-0.3,0.61,0.61,0,0,1-.24-0.53,0.18,0.18,0,0,0-.12-0.08,0.11,0.11,0,0,0-.12.09,1.15,1.15,0,0,0,0,.55c0.16,0.72.21,1.46,0.31,2.19,0.14,1,.31,2,0.46,3a13,13,0,0,0,1.42,4.17,4.38,4.38,0,0,0,1,1.35,0.46,0.46,0,0,1,.22.43,2,2,0,0,1,0,.22,0.54,0.54,0,0,1-.07.46,1.88,1.88,0,0,1-.48-0.07c-0.14,0-.17-0.12-0.22-0.22-0.17-.33-0.32-0.67-0.5-1s-0.45-.85-0.7-1.26a9.92,9.92,0,0,1-1.25-3.6,29.13,29.13,0,0,0-.64-3.1,8.26,8.26,0,0,1-.16-1c-0.16-1.1-.3-2.2-0.4-3.31a19.56,19.56,0,0,1,0-2.56,20.43,20.43,0,0,0-.18-3.66,22.58,22.58,0,0,1-.24-3.11,10.79,10.79,0,0,1,.2-1.88c0.06-.35.07-0.7,0.13-1a19.15,19.15,0,0,1,1-3.18l0.33-.88a6.6,6.6,0,0,1,.86-1.73c0.42-.56.71-1.22,1.18-1.75,0.33-.37.61-0.79,0.94-1.16a12.19,12.19,0,0,0,1.67-2.47,1.62,1.62,0,0,1,.21-0.33,20.27,20.27,0,0,0,2.6-3.78c0.54-1,1.06-2,1.54-3.05a5.3,5.3,0,0,0,.32-0.95c0.08-.29.28-0.52,0.37-0.8a0.7,0.7,0,0,1,.11-0.13,4.4,4.4,0,0,0,.74-0.64,1.56,1.56,0,0,1,.7-0.58,2,2,0,0,0,.33-0.28,4.49,4.49,0,0,1,1.49-1,5,5,0,0,0,1.26-.66,3.33,3.33,0,0,1,.69-0.35c0.1,0,.21-0.07.31-0.12a17.57,17.57,0,0,1,3.29-1.27,2.16,2.16,0,0,1,.81-0.14,0.72,0.72,0,0,0,.32-0.06,15.68,15.68,0,0,1,1.82-.47,16.85,16.85,0,0,1,2.73-.42,1.84,1.84,0,0,1,.55,0,6.46,6.46,0,0,0,1.22,0,12.92,12.92,0,0,1,1.38.11l2.11,0.15a12.72,12.72,0,0,1,2,.32,10.53,10.53,0,0,0,1.78.41,2,2,0,0,1,.73.26,4.83,4.83,0,0,0,1.15.39h0.06a9.3,9.3,0,0,1,1.71.75,5.49,5.49,0,0,0,2.16.81,22.52,22.52,0,0,1,3.41.79,12.09,12.09,0,0,1,2.66,1.24c0.61,0.39,1.25.71,1.85,1.13a13.75,13.75,0,0,1,1.42,1.16c0.81,0.75,1.59,1.54,2.39,2.3a0.8,0.8,0,0,1,.22.37,2,2,0,0,0,.59.91,7.94,7.94,0,0,0,.82.8,1.26,1.26,0,0,1,.37.54,20.53,20.53,0,0,0,1.34,2.17c0.43,0.74,1,1.4,1.33,2.18a10.82,10.82,0,0,1,.49,1.4c0.25,0.8.68,1.51,1,2.29a26.78,26.78,0,0,1,1,2.85,2.72,2.72,0,0,1,.09.88,6.94,6.94,0,0,0,.09,1.44,7.26,7.26,0,0,1,.08.83,9.59,9.59,0,0,0,.38,2.19,0.46,0.46,0,0,0,.19.38,0.49,0.49,0,0,1,.28.54,19,19,0,0,1,0,2.31C112.62,1951.32,112.61,1951.62,112.62,1951.91Zm-5.15,9.17c0.07,0,.08,0,0.11.08a0.19,0.19,0,0,1-.1.17c-0.08,0-.09,0-0.09-0.08A0.13,0.13,0,0,1,107.47,1961.08Zm1.15-1.1-0.06.38c0-.13,0-0.25,0-0.38s0-.15,0-0.22,0-.1.06-0.1a0.16,0.16,0,0,1,0,.1c0,0.07,0,.14,0,0.22h0Zm0.08-1.15a0.34,0.34,0,0,1,.06.14c0,0.13,0,.25-0.07.37l-0.05-.28C108.62,1958.89,108.65,1958.85,108.7,1958.83Zm0.25,2.06s0,0.11-.08.09a0.12,0.12,0,0,1-.06-0.09,0.83,0.83,0,0,1,0-.16h0c0-.35.08-0.7,0.13-1.05a0.25,0.25,0,0,1,.06-0.09,0.18,0.18,0,0,1,0,.08A2.85,2.85,0,0,0,108.95,1960.89Zm0.65-1.1a0.2,0.2,0,0,1,.08-0.05l0,0.1a0.29,0.29,0,0,1,0,.07A0.09,0.09,0,0,1,109.59,1959.79Zm0.55-2.28a0.21,0.21,0,0,1-.06-0.08c0-.26,0-0.51,0-0.77a0.24,0.24,0,0,1,0-.08,0.28,0.28,0,0,1,0,.09c0,0.11,0,.22,0,0.35a0.83,0.83,0,0,1-.06.41A0.38,0.38,0,0,0,110.15,1957.51Zm0.61-1.72a6.39,6.39,0,0,1,0-.72,0.17,0.17,0,0,1,.11-0.11c0.09,0,.06.06,0.07,0.1a1.48,1.48,0,0,1,0,.25c-0.18.6,0,1.32-.22,2a0.72,0.72,0,0,1,0,.11,1.61,1.61,0,0,0-.14.27c0-.07,0-0.14,0-0.22a2.05,2.05,0,0,1,.12-1A1.8,1.8,0,0,0,110.76,1955.79Zm-5.5,2.34a6.11,6.11,0,0,0-.18,1.35,0.14,0.14,0,0,1-.16.17c-0.08,0-.07-0.11-0.07-0.21a13,13,0,0,1,.31-1.35,0.61,0.61,0,0,1,.09-0.11A0.56,0.56,0,0,1,105.26,1958.14ZM71.7,1998a0.25,0.25,0,0,1,.07-0.07,0.17,0.17,0,0,1,.06,0,0.3,0.3,0,0,1-.07.07S71.7,1998.08,71.7,1998Zm-14.57-37.47a0.25,0.25,0,0,1,.13.2c0,0.05,0,.1,0,0.1a0.19,0.19,0,0,1-.16-0.18C57.06,1960.63,57.09,1960.56,57.14,1960.57Zm55.77-18a5.46,5.46,0,0,1-.15-1.07,13.3,13.3,0,0,0-.4-2.23c-0.19-.41-0.14-0.41.23-0.72q0.94-.81,1.86-1.66a13.73,13.73,0,0,1,1.16-.92c0.8-.6,1.57-1.23,2.36-1.85l1.32-1,0.3-.24c0.14-.1.19-0.39,0.39-0.33a0.86,0.86,0,0,1,.33.42c0.13,0.24.24,0.5,0.36,0.75l0.53,1.21a0.28,0.28,0,0,1-.14.4,22.27,22.27,0,0,0-2.82,2.43c-0.77.81-1.65,1.5-2.48,2.23-0.65.58-1.27,1.19-1.87,1.82l-0.77.8C113,1942.65,112.9,1942.66,112.91,1942.54Z" transform="translate(-28.44 -1915.92)"/><path d="M101.15,1975.49a7.54,7.54,0,0,0,1.09-2,1.06,1.06,0,0,0,.09-0.38,13.26,13.26,0,0,0,0-1.83c0-.1-0.13-0.28.05-0.31a0.34,0.34,0,0,1,.18.31c0,0.11,0,.22,0,0.33s0.16,0.2.32,0.17,0.26-.09.21-0.25a4.66,4.66,0,0,0-.63-1.64,16,16,0,0,1-1.25-2,3.23,3.23,0,0,0-2.42-1.8c-0.22,0-.26-0.15-0.22-0.35a4.41,4.41,0,0,0,0-1.44,5.61,5.61,0,0,1,0-1.59c0-.2,0-0.4,0-0.61a3.15,3.15,0,0,0-.14-1.64c-0.21-.55-0.34-1.13-0.58-1.67a0.71,0.71,0,0,1,.28-1,10,10,0,0,0,1.08-1,6,6,0,0,0,1.31-2l0.29-.72a2.56,2.56,0,0,0,.41-1.72c0-.09,0-0.19-0.13-0.21a0.19,0.19,0,0,0-.22.12c0,0.07-.06.14-0.08,0.21a19.81,19.81,0,0,1-1.09,2.54,4.67,4.67,0,0,0-.63,1.33,0.21,0.21,0,0,1-.17.1c-0.09,0,0-.12,0-0.18,0.29-.62.59-1.23,0.86-1.85a5.53,5.53,0,0,0,.26-0.9,0.18,0.18,0,0,0-.14-0.21c-0.1,0-.12.07-0.14,0.14-0.11.28-.2,0.56-0.31,0.83a0.44,0.44,0,0,1-.2.32,0.73,0.73,0,0,0-.39.43,9,9,0,0,0-.45.94,0.19,0.19,0,0,1-.21.14h0c0.18-.28.25-0.6,0.42-0.88a1,1,0,0,0,.13-0.64,0.21,0.21,0,0,0-.17-0.25,0.17,0.17,0,0,0-.19.21,0.67,0.67,0,0,1,0,.22,1.36,1.36,0,0,1-.61,1.05,0.77,0.77,0,0,0-.24.3,0.78,0.78,0,0,1-.31.47,0.64,0.64,0,0,1-.25-0.55,10.72,10.72,0,0,1-.2-1.09,1.71,1.71,0,0,1,.14-0.92,8.43,8.43,0,0,0,.74-3.2c0-.6.06-1.22,0-1.83a8.1,8.1,0,0,1,.59-3.22,8,8,0,0,0,.37-2.18,0.91,0.91,0,0,0-.17-0.58c-0.35-.54-0.52-1.17-0.87-1.73s-0.69-1.46-1.11-2.15a0.33,0.33,0,0,1,0-.3,5.48,5.48,0,0,0,.31-1.56c0-.07,0-0.16-0.08-0.18a0.17,0.17,0,0,0-.16.12,0.91,0.91,0,0,0-.08.38c0,0.25-.1.5-0.16,0.75a0.21,0.21,0,0,1-.1.13,0.14,0.14,0,0,1-.17-0.09c0-.06-0.08-0.13-0.12-0.19a13.7,13.7,0,0,0-1.38-1.8c-0.08-.08-0.15-0.24-0.31-0.16s-0.08.27,0.05,0.44,0.09,0.07.12,0.11c0.41,0.57.87,1.11,1.23,1.71a38,38,0,0,1,2.17,4.24,2.26,2.26,0,0,1,.07,1.72,24.36,24.36,0,0,0-.83,3,5.21,5.21,0,0,0-.28,1.74c0,0.22,0,.44.08,0.66a5.5,5.5,0,0,1-.35,3c0,0.08-.1.11-0.16,0a11.77,11.77,0,0,1-.67-1,0.68,0.68,0,0,0-.28-0.4c-0.42-.18-0.69-0.56-1.09-0.74a1.69,1.69,0,0,1-.49-0.36,1.31,1.31,0,0,0-.51-0.33,0.93,0.93,0,0,1-.62-0.79c-0.06-.31-0.11-0.62-0.16-0.93-0.11-.72-0.21-1.45-0.37-2.16a6.11,6.11,0,0,0-.47-1.18,0.14,0.14,0,0,0-.18-0.09,0.13,0.13,0,0,0-.06.19,5.3,5.3,0,0,1,.32.95c0.18,1.15.35,2.31,0.55,3.46a1.61,1.61,0,0,0,.92,1.22,1.59,1.59,0,0,1,.73.66,1,1,0,0,0,.23.31,5.23,5.23,0,0,1,1.13,1.36,3.67,3.67,0,0,1,.67,2.41,1.06,1.06,0,0,0,0,.6c0.12,0.25.15,0.54,0.27,0.79a1.34,1.34,0,0,1-.13,1.26c-0.17.35-.35,0.7-0.55,1a8.23,8.23,0,0,1-.66,1.15,0.19,0.19,0,0,1-.14.06c-0.12,0-.06-0.12,0-0.16,0.21-.39.44-0.77,0.65-1.16s0.28-.56.41-0.85a0.18,0.18,0,0,0-.06-0.24c-0.14-.08-0.19,0-0.27.11a0.42,0.42,0,0,0-.08.2c-0.06.14-.13,0.26-0.2,0.4s-0.07.15-.16,0.1c-0.24-.13-0.28,0-0.34.2s-0.09.27-.2,0.23c-0.37-.14-0.45.17-0.58,0.36a0.53,0.53,0,0,1-.65.34,0.45,0.45,0,0,1,0,.05,3.13,3.13,0,0,0-.73.25,5.22,5.22,0,0,1-1.11.53c-0.39.43-1,.61-1.36,1a0.9,0.9,0,0,1-.39.31,0.17,0.17,0,0,0-.08.27,0.19,0.19,0,0,0,.29,0,2.6,2.6,0,0,1,.23-0.16,4.13,4.13,0,0,1,1.24-.46,5.55,5.55,0,0,0,.81-0.18,22.18,22.18,0,0,1,3.08-.7,1,1,0,0,0,.7-0.4l1-1.41a0.21,0.21,0,0,1,.13-0.09c0.05,0,.06.06,0.08,0.12,0.12,0.37.23,0.74,0.32,1.12a14.86,14.86,0,0,1,.14,2.22,5.5,5.5,0,0,1,0,1.11,16.4,16.4,0,0,1-.53,2.21,0.51,0.51,0,0,1-.47.44,14,14,0,0,0-3.35,1.17c-0.73.32-1.38,0.79-2.14,1.07-0.4.15-.8,0.28-1.19,0.45a16.52,16.52,0,0,1-2.66.94,6.38,6.38,0,0,1-2,.23,1.46,1.46,0,0,1-1.38-.84c-0.22-.48-0.53-0.93-0.8-1.39a0.23,0.23,0,0,0-.34-0.09,0.2,0.2,0,0,0-.05.29l0.92,1.64a0.84,0.84,0,0,0,.23.23,2.3,2.3,0,0,0,1.23.47c0.37,0,.37,0,0.24.37,0,0.07,0,.14-0.07.21a10.22,10.22,0,0,0-.92,3.45,3.49,3.49,0,0,0,0,.77c0.05,0.29.17,0.57,0.21,0.86a1.61,1.61,0,0,0,.43.82,6.09,6.09,0,0,0,2.24,1.49,10.24,10.24,0,0,1,1.7.92,7.47,7.47,0,0,0,1.32.69,5.83,5.83,0,0,0,.81.36,11.93,11.93,0,0,0,2.82.21h0.06a0.21,0.21,0,0,0,.2-0.16,0.22,0.22,0,0,0-.13-0.23,0.87,0.87,0,0,0-.64-0.14,7.15,7.15,0,0,1-1.21,0,3.86,3.86,0,0,1-1.2-.18,8.54,8.54,0,0,1-1.8-1,0.2,0.2,0,0,1-.1-0.12c0-.12.11-0.06,0.16-0.06a13,13,0,0,1,2,.37,1.43,1.43,0,0,0,1,0,1.21,1.21,0,0,1,.48-0.13,10.42,10.42,0,0,0,2.26-.23c0.36-.07.44,0,0.45,0.36,0,0.61.12,1.22,0.17,1.83,0,0.16,0,.4.16,0.43a0.44,0.44,0,0,0,.34-0.33,3.16,3.16,0,0,0,.14-0.36,7.42,7.42,0,0,0,.5-1.87,0.6,0.6,0,0,1,.47-0.53,4.71,4.71,0,0,0,2.22-1.29,2.8,2.8,0,0,1,.3-0.24A10.73,10.73,0,0,0,101.15,1975.49Zm-2.83-19.16a0.19,0.19,0,0,1,0,.25,0.33,0.33,0,0,1-.06.07s0,0,0-.08A0.46,0.46,0,0,1,98.32,1956.33ZM92.79,1961s-0.06,0-.08,0a0.53,0.53,0,0,1,.23-0.34,0.18,0.18,0,0,1,.05.07A0.41,0.41,0,0,1,92.79,1961Zm1.14-.48-0.19.19a0.19,0.19,0,0,1,0-.1,0.25,0.25,0,0,1,.18-0.18A0,0,0,0,1,93.93,1960.52Zm0.62-.29a0.09,0.09,0,0,1,0-.06l0.11-.12,0,0.07A0.12,0.12,0,0,1,94.55,1960.23Zm0-.64a0.09,0.09,0,0,1,0-.07,0.12,0.12,0,0,1,.14-0.1,0.26,0.26,0,0,1,0,.1A0.1,0.1,0,0,1,94.54,1959.59Zm3.43-2.49c0.06,0.09,0,.12-0.05.12Zm-0.11.38s0,0.11-.11.07a0.13,0.13,0,0,1,0-.09,0.29,0.29,0,0,1,.15-0.21A0.21,0.21,0,0,1,97.86,1957.47Z" transform="translate(-28.44 -1915.92)"/><path d="M74.92,1977.88a2.34,2.34,0,0,0,1.45-.75,5.24,5.24,0,0,0,1.32-2.64,14.75,14.75,0,0,0,.15-2,4.22,4.22,0,0,0-.58-2A1.13,1.13,0,0,0,77,1970a0.41,0.41,0,0,1-.29-0.4,0.56,0.56,0,0,1,.5-0.18,1,1,0,0,1,.22,0,2.23,2.23,0,0,0,.92-0.19,3.08,3.08,0,0,0,1.48-1,0.94,0.94,0,0,0,.22-0.66,0.23,0.23,0,0,0-.09-0.13,0.13,0.13,0,0,0-.09,0,1.19,1.19,0,0,0-.18.21,2.91,2.91,0,0,1-2.39,1.38,1.29,1.29,0,0,0-.44.07,1.55,1.55,0,0,1-1,0,9.8,9.8,0,0,1-2.79-1.2c-0.58-.33-1.12-0.71-1.72-1-0.85-.43-1.56-1.05-2.38-1.53a7.08,7.08,0,0,0-1.41-.62,1.18,1.18,0,0,0-.91,0,0.51,0.51,0,0,1-.28,0,4.12,4.12,0,0,0-1.16.06,4.6,4.6,0,0,0-3.34,2.17,6.93,6.93,0,0,0-1.14,2.38,13.2,13.2,0,0,0-.29,2,5.8,5.8,0,0,0,.33,2.18,4.17,4.17,0,0,0,1.56,2.41c0.29,0.19.6,0.37,0.89,0.57a4.77,4.77,0,0,0,2.75.68c0.66,0,1.33-.07,2,0,0.35,0,.68.17,1,0.22,0.73,0.09,1.46.21,2.2,0.3a18.24,18.24,0,0,0,2.65.28A2.8,2.8,0,0,0,74.92,1977.88Zm-8-1a7.69,7.69,0,0,0-1.65-.07,3.33,3.33,0,0,1-1.38-.36,7.25,7.25,0,0,1-1.57-1,3.84,3.84,0,0,1-.84-1.22,8.36,8.36,0,0,1-.66-2.28,0.68,0.68,0,0,1,0-.18,9,9,0,0,1,.28-2.24,0.73,0.73,0,0,1,0-.16,0.2,0.2,0,0,1,.12-0.09c0.08,0,.06.07,0.06,0.12,0,0.44,0,.89.09,1.33a6.85,6.85,0,0,0,1.4,3.57,10.25,10.25,0,0,1,.81,1,1.23,1.23,0,0,0,.47.39,2.61,2.61,0,0,1,.68.47c0.1,0.11.24,0.2,0.37,0a0.1,0.1,0,0,1,.15,0,5.54,5.54,0,0,0,1.66.59,0.18,0.18,0,0,1,.12.1C67.08,1976.9,67,1976.86,66.93,1976.85Z" transform="translate(-28.44 -1915.92)"/><path d="M60.92,1935.78a0.13,0.13,0,0,0-.19-0.05l-0.66.29a0.18,0.18,0,0,1-.15,0c0-.06,0-0.07.07-0.1,0.4-.3.88-0.46,1.29-0.75,0.15-.11.33-0.12,0.07-0.31,0,0,0-.1.08-0.11a13.41,13.41,0,0,1,1.47-.44,0.16,0.16,0,0,0,.16-0.13,0.16,0.16,0,0,0-.16-0.13,1.39,1.39,0,0,1-.27-0.06,0.14,0.14,0,0,1,0-.26,2.88,2.88,0,0,1,.61-0.26,7.6,7.6,0,0,1,.93-0.33,0.15,0.15,0,0,0,.13-0.2c0-.12-0.14-0.08-0.23-0.05a12,12,0,0,1-1.25.43,7.42,7.42,0,0,1-.73.23,0.36,0.36,0,0,1-.11,0,0.26,0.26,0,0,1,.08-0.11c0.53-.11,1-0.49,1.5-0.55a0.16,0.16,0,0,0,.11-0.11,0.09,0.09,0,0,0-.12-0.06l-0.32.09a0.1,0.1,0,0,1-.09,0,0.09,0.09,0,0,1,0-.13,3.05,3.05,0,0,1,1.28-.32,2,2,0,0,0,.86-0.18c0.19-.09,0-0.26,0-0.39s-0.1-.08-0.17,0a9.25,9.25,0,0,1-1.1.35,0.17,0.17,0,0,1-.24,0,0.29,0.29,0,0,1,.15-0.14,7.84,7.84,0,0,1,1.82-.77c0.07,0,.21,0,0.18-0.16s-0.13-.1-0.23-0.08l-0.27.07a0.21,0.21,0,0,1-.09,0,0.25,0.25,0,0,1,.07-0.08,3,3,0,0,1,.92-0.21l0.44,0a0.13,0.13,0,0,0,.13-0.14,0.14,0.14,0,0,0-.16-0.12,4.53,4.53,0,0,0-1,.15c-0.54.2-1.08,0.38-1.62,0.56-0.07,0-.15.06-0.2,0a0.18,0.18,0,0,1,.07-0.19,0.67,0.67,0,0,1,.29-0.16c0.74-.34,1.49-0.63,2.25-0.91a1.8,1.8,0,0,0,.71-0.28,1.88,1.88,0,0,1,.76-0.23,0.1,0.1,0,0,0,.07-0.13A0.1,0.1,0,0,0,68,1929l-0.55.1c-0.09,0-.21.05-0.24-0.06-0.09-.35-0.32-0.16-0.48-0.11-0.52.16-1,.36-1.56,0.54a0.16,0.16,0,0,1-.15,0,0.55,0.55,0,0,1,.09-0.11,3.7,3.7,0,0,1,1-.44c1-.32,2.07-0.63,3.13-0.88,0.27-.06.55,0,0.81-0.13a0.16,0.16,0,0,0,.14-0.14,0.14,0.14,0,0,0-.16-0.11,0.46,0.46,0,0,1-.21,0c-0.19-.33-0.46-0.15-0.69-0.11a6.32,6.32,0,0,0-1.38.39l-0.72.29s-0.11.06-.14,0a0.17,0.17,0,0,1,.07-0.12,3.4,3.4,0,0,1,1-.47l2.74-.71a6.66,6.66,0,0,1,.91-0.22,0.1,0.1,0,0,0,.06-0.13,0.11,0.11,0,0,0-.08-0.06H71.37a4.8,4.8,0,0,0-1,.22,0.17,0.17,0,1,1-.09-0.32,2,2,0,0,0,.73-0.39c0.15-.09,0-0.13-0.07-0.14a0.14,0.14,0,0,1-.1,0,0.09,0.09,0,0,1,.06-0.12,5.25,5.25,0,0,1,.93-0.3c0.35-.06.69-0.14,1-0.21a0.37,0.37,0,0,0,.11-0.08,0.33,0.33,0,0,0-.14-0.07c-0.26,0-.52,0-0.77.07a0.19,0.19,0,0,1-.25-0.19c0-.21.09-0.19,0.22-0.21,0.55-.07,1.1-0.16,1.65-0.22a1.08,1.08,0,0,0,.5-0.22,0,0,0,0,0,0-.09,0.16,0.16,0,0,0-.08-0.06c-0.24,0-.45.15-0.69,0.19a16.31,16.31,0,0,0-2.62.42,5,5,0,0,0-1.1.31,0.33,0.33,0,0,1-.16,0,0.44,0.44,0,0,1,.12-0.14,1.54,1.54,0,0,0,.52-0.13,1.87,1.87,0,0,1,.66-0.27,25.15,25.15,0,0,1,3-.73,8.84,8.84,0,0,1,2-.3,0.45,0.45,0,0,0,.21-0.07,0.09,0.09,0,0,0,.06-0.13,0.11,0.11,0,0,0-.09-0.05c-0.46.18-1,0-1.42,0.17a0.22,0.22,0,0,1-.26,0,0.34,0.34,0,0,0-.45-0.06c-0.28.1-.57,0.08-0.86,0.19a6.38,6.38,0,0,1-1.13.25,0.2,0.2,0,0,1-.15,0c0-.07,0-0.08.09-0.1a13.16,13.16,0,0,1,1.62-.56,15.36,15.36,0,0,1,2.06-.4c0.67,0,1.3-.29,2-0.31a0.19,0.19,0,0,0,.1,0,0.17,0.17,0,0,0,0-.08,0.05,0.05,0,0,0,0,0,0.66,0.66,0,0,0-.27-0.05c-0.71.15-1.43,0.22-2.14,0.33l-2.24.37H72.85l0.13-.09a0.62,0.62,0,0,1,.19-0.1,20,20,0,0,0,2.29-.61c0.55-.16,1.12-0.21,1.67-0.31a14.26,14.26,0,0,1,2.25-.28l0.83,0a0.16,0.16,0,0,0,.18-0.11c0-.11-0.09-0.09-0.14-0.13a0.2,0.2,0,0,1-.09-0.12,0.1,0.1,0,0,1,.11-0.09H80.5c0.6,0,1.21,0,1.81.09a4.68,4.68,0,0,0,.56,0A0.14,0.14,0,0,0,83,1921a0.13,0.13,0,0,0-.16-0.11,4,4,0,0,1-.79-0.07,9.35,9.35,0,0,0-2-.3,2.15,2.15,0,0,1-.33,0,6.38,6.38,0,0,0-2.09,0c-1.33.21-2.66,0.39-4,.67a6.31,6.31,0,0,0-2.27.64,1.12,1.12,0,0,1-.32.09,13.82,13.82,0,0,0-2.33.69c-0.56.27-1.11,0.56-1.66,0.86-0.37.21-.75,0.4-1.11,0.61a8,8,0,0,1-2.12,1.19,0.45,0.45,0,0,0-.32.46,12.64,12.64,0,0,1-.26,1.56c-0.14.52-.44,1-0.56,1.5a0.19,0.19,0,0,1-.1.13,1,1,0,0,0-.49.58,14.9,14.9,0,0,1-.82,1.32c-0.32.4-.55,0.86-0.85,1.27a2,2,0,0,1-.12.18c-0.56.62-1,1.33-1.51,2s-1.15,1.62-1.72,2.44c-0.09.14-.15,0.3-0.24,0.44a1.45,1.45,0,0,0-.24.44c0,0.15-.2.29,0,0.45s-0.2.15-.11,0.3,0,0,0,.05a0.65,0.65,0,0,0,.42.17,4.83,4.83,0,0,0,.7-0.3,1.89,1.89,0,0,1,.65-0.31,4.25,4.25,0,0,0,1.39-.69,0.13,0.13,0,0,0,.05-0.09c0-.07-0.08-0.06-0.12-0.05l-0.49.09A0.16,0.16,0,0,1,59,1937a0.14,0.14,0,0,1,.08-0.18c0.1-.05.21-0.09,0.31-0.13a3.71,3.71,0,0,0,1.41-.8A0.14,0.14,0,0,0,60.92,1935.78Zm10.22-10.48a0.23,0.23,0,0,1,.26,0c0.06,0,.07,0,0,0.08a0.18,0.18,0,0,1-.23.1A0.09,0.09,0,0,1,71.14,1925.3Zm7.93-4.18a0.1,0.1,0,0,1,0,.09,0.1,0.1,0,0,1-.07.07,1.75,1.75,0,0,1-.64-0.07A0.67,0.67,0,0,1,79.07,1921.12Zm-1.48.07a2.83,2.83,0,0,1,.8,0,0.12,0.12,0,0,1-.13.13l-0.65,0c-0.07,0-.18,0-0.18-0.08S77.51,1921.19,77.58,1921.18Zm-2.35.51a3.77,3.77,0,0,1,1.31-.39,5.12,5.12,0,0,1,.6-0.08,0.17,0.17,0,0,1,.17.08,0.09,0.09,0,0,1-.07.13,2,2,0,0,1-.48.12,4.84,4.84,0,0,0-1.45.3,0.16,0.16,0,0,1-.15,0A0.1,0.1,0,0,1,75.24,1921.69ZM72,1923a0.13,0.13,0,0,1,.08,0c0,0.13-.14.06-0.21,0.1l-0.15-.06A0.27,0.27,0,0,1,72,1923Zm-3.3,1.38a0.16,0.16,0,0,1,.07,0,0.1,0.1,0,0,1,0,0l-0.1,0A0.16,0.16,0,0,1,68.74,1924.35Zm-0.34,2.54a0.25,0.25,0,0,1,.14-0.08,4.86,4.86,0,0,0,1.11-.24,0.28,0.28,0,0,1,.13.05,0.21,0.21,0,0,1-.06.09,2.6,2.6,0,0,1-1.1.31,0.24,0.24,0,0,1-.2,0A0.08,0.08,0,0,1,68.4,1926.89Zm-0.26-.39c0.05,0,.14,0,0.12.05a0.3,0.3,0,0,1-.3.19,0.11,0.11,0,0,1-.08-0.07C67.85,1926.45,68,1926.54,68.14,1926.5Zm-4.83,5.23a0.05,0.05,0,1,1,0,.08l-0.22.08Zm-0.78.45,0.55-.25a1.51,1.51,0,0,1-.49.34s-0.07,0-.08,0A0.09,0.09,0,0,1,62.53,1932.18Zm-0.26,1.74a0.19,0.19,0,0,1,.07.06,0.83,0.83,0,0,1-.42.25,0.2,0.2,0,0,1-.06-0.06A0.55,0.55,0,0,1,62.26,1933.92Z" transform="translate(-28.44 -1915.92)"/><path d="M84.94,1992.42a1.22,1.22,0,0,0,.24-0.77c0-.14,0-0.3.05-0.44a4.7,4.7,0,0,0-.22-2c-0.06-.21-0.2-0.38-0.27-0.6a4.55,4.55,0,0,0-.56-1.41,0.39,0.39,0,0,1,0-.1l-1.5-4.17a2.86,2.86,0,0,1-.12-0.36,1.63,1.63,0,0,0-.63-1c-0.62-.48-0.77-0.59-1.46-0.07l0,0a0.27,0.27,0,0,1-.38,0,1,1,0,0,0-1.3.17,2.22,2.22,0,0,0-.54,1c-0.18.74-.42,1.45-0.6,2.19-0.29,1.18-.59,2.37-0.87,3.55a11.61,11.61,0,0,0-.46,2.68,3.58,3.58,0,0,0,.05.94,0.75,0.75,0,0,0,.55.63,4.53,4.53,0,0,0,.87.18,1.57,1.57,0,0,0,1.4-.54,6.35,6.35,0,0,0,.51-0.66,2,2,0,0,1,.36-0.42c0.41-.34.55-0.33,0.92,0.05a1,1,0,0,1,.28.34,2.66,2.66,0,0,0,.9,1A2.15,2.15,0,0,0,84,1993,1.82,1.82,0,0,0,84.94,1992.42Z" transform="translate(-28.44 -1915.92)"/><path d="M60.51,1985.33a0.23,0.23,0,0,1-.2-0.23c-0.07-.67-0.42-1.26-0.52-1.92a2.28,2.28,0,0,0-.2-0.51,0.1,0.1,0,0,0-.14,0,0.18,0.18,0,0,0-.11.11c0,0.13,0,.26,0,0.38a0.2,0.2,0,0,1-.18.18,0.15,0.15,0,0,1-.16-0.12,2.91,2.91,0,0,1-.11-0.37c0-.24-0.06-0.48-0.11-0.71s0-.34-0.23-0.31-0.1.2-.11,0.32v0.05a0.17,0.17,0,0,1-.17.12,0.16,0.16,0,0,1-.1-0.11,4.89,4.89,0,0,1-.27-1.07,0.42,0.42,0,0,0-.13-0.49c-0.12-.06-0.2.1-0.23,0.48,0,0.08.05,0.2-.07,0.22a0.23,0.23,0,0,1-.21-0.15,2.34,2.34,0,0,1-.15-0.41,6.31,6.31,0,0,1-.15-1.32c0-.15.07-0.39-0.17-0.39s-0.15.22-.16,0.37a7.74,7.74,0,0,0,.18,1.92c0,0.07.05,0.16,0,.17s-0.12-.1-0.11-0.17a4.25,4.25,0,0,0-.13-0.76,0.29,0.29,0,0,0-.15-0.28,0.32,0.32,0,0,1-.19-0.36,6.16,6.16,0,0,1,0-2,0.16,0.16,0,0,0-.07-0.14,0.17,0.17,0,0,0-.2,0,0.37,0.37,0,0,0-.08.26c0,0.26-.07.51-0.11,0.77,0,0.07,0,.15-0.13.14a0.18,0.18,0,0,1-.21-0.13,2.44,2.44,0,0,1-.07-0.49c0-.38,0-0.77.07-1.15,0-.09.06-0.19-0.06-0.24a0.19,0.19,0,0,0-.24.08c-0.05.07,0,.2-0.15,0.19a0.73,0.73,0,0,1,0-.26c0-.17,0-0.33,0-0.5s0-.24,0-0.25-0.22-.3-0.42-0.31a0.32,0.32,0,0,0-.14.06,0.61,0.61,0,0,1,.06-0.74,0.1,0.1,0,0,0,0-.14,0.17,0.17,0,0,0-.15,0,1.28,1.28,0,0,0-.3.32c-0.17.33-.4,0.62-0.59,0.93a2.19,2.19,0,0,0-.38.91,14.9,14.9,0,0,0-.1,1.77c0,0.68.06,1.37,0,2.05a1.45,1.45,0,0,0,.68,1.38,0.73,0.73,0,0,1,.23.24,0.36,0.36,0,0,0,.26.18,8.71,8.71,0,0,1,1.74.71,5.21,5.21,0,0,0,1.41.6,2.47,2.47,0,0,1,1.44.76,2.94,2.94,0,0,0,2,.72c0.05,0,.12,0,0.12-0.07a0.34,0.34,0,0,0-.06-0.15A0.3,0.3,0,0,0,60.51,1985.33Zm-6.59-8.25c0,0.14,0,.29-0.07.44a0.1,0.1,0,0,1-.06.07,0.12,0.12,0,0,1-.11-0.1,0.08,0.08,0,0,1,0-.05,3.92,3.92,0,0,1,.57-1.4,0.09,0.09,0,0,1,.12,0A2.39,2.39,0,0,0,53.91,1977.08Zm0.46,2.17a0.24,0.24,0,0,1,0-.09,1.08,1.08,0,0,1,0-.16l0,0.09A0.14,0.14,0,0,1,54.37,1979.25Zm0-1.5a0.08,0.08,0,1,1-.16,0c0-.31.07-0.61,0.11-0.92,0-.08,0-0.23.11-0.22s0.05,0.17.09,0.29C54.52,1977.14,54.47,1977.45,54.42,1977.75Zm0.62,1.63a0.74,0.74,0,0,1-.1-0.19,6.81,6.81,0,0,1-.06-1.65,0.18,0.18,0,0,1,.07-0.07,0.22,0.22,0,0,1,.06.09c0,0.2,0,.4,0,0.61a2.37,2.37,0,0,0,.05,1A1,1,0,0,1,55,1979.39Zm0.82,0.31-0.06.14s0-.09,0-0.14,0-.1,0-0.15,0-.16.1-0.13a0.18,0.18,0,0,1,.07.13A0.37,0.37,0,0,1,55.86,1979.7Z" transform="translate(-28.44 -1915.92)"/><path d="M63.88,1952.94c-0.06-.18-0.1-0.38-0.15-0.57a0.5,0.5,0,0,1-.05-0.1l-0.4-1.32a2,2,0,0,0-.49-0.86,0.17,0.17,0,0,0-.25,0,0.15,0.15,0,0,0,0,.24,1.15,1.15,0,0,1,.23.37c0.39,1.21.79,2.42,1.06,3.67a16.24,16.24,0,0,0,.94,2.77,2.08,2.08,0,0,0,1.05,1.08,19.27,19.27,0,0,1,1.9,1c0.63,0.42,1.27.82,1.9,1.24a5.33,5.33,0,0,0,1.4.64,13.06,13.06,0,0,1,3,1c0.08,0,.18.12,0.25,0a0.31,0.31,0,0,0,.08-0.3,0.58,0.58,0,0,0-.32-0.37,1.38,1.38,0,0,1-.76-0.77,0.22,0.22,0,0,0-.26-0.17,0.35,0.35,0,0,1-.48-0.3,0.42,0.42,0,0,0-.52-0.36,0.7,0.7,0,0,0-.51-0.06c-0.05,0-.13,0-0.16-0.11l-0.16-.29c-0.08-.14-0.18-0.1-0.27,0a0.64,0.64,0,0,0-.08.14c-0.09.15-.16,0.1-0.24,0a5,5,0,0,1-.59-0.94c-0.06-.14-0.12-0.27-0.3,0a0.37,0.37,0,0,1-.66-0.13,5.68,5.68,0,0,0-.42-1,0.2,0.2,0,0,0-.19-0.17c-0.16,0-.11.17-0.13,0.26a0.67,0.67,0,0,0,0,.22,0.72,0.72,0,0,1,.14.14,0.16,0.16,0,0,1,0,.14,0.11,0.11,0,0,1-.18,0,2,2,0,0,1-.14-0.16,2.64,2.64,0,0,1-.45-1c-0.07-.27-0.15-0.53-0.23-0.79a0.15,0.15,0,0,0-.14-0.14c-0.12,0-.11.12-0.12,0.21a5.92,5.92,0,0,0,.12.74,0.09,0.09,0,0,1,.05.16c-0.08.05-.1-0.05-0.12-0.11a4.17,4.17,0,0,0-.49-0.71,0.68,0.68,0,0,1-.19-0.39c-0.08-.38-0.2-0.75-0.3-1.12,0-.09-0.06-0.21-0.16-0.19a0.2,0.2,0,0,0-.12.27c0,0.07,0,.15,0,0.22a4.58,4.58,0,0,0,.26.79,0.15,0.15,0,0,1-.06.23,0.2,0.2,0,0,1-.24-0.1,3.41,3.41,0,0,1-.3-0.83c-0.12-.56-0.24-1.12-0.37-1.68,0-.13-0.08-0.25-0.12-0.37a0.1,0.1,0,0,0-.12-0.08,0.12,0.12,0,0,0-.1.12,1.17,1.17,0,0,0,.09.75,0.13,0.13,0,0,1-.06.19,0.15,0.15,0,0,1-.17-0.11c0-.43-0.22-0.81-0.2-1.25a3.46,3.46,0,0,0-.24-1.14,0.19,0.19,0,0,0-.13-0.16,0.4,0.4,0,0,1-.32-0.49,2.73,2.73,0,0,0-.12-0.71s0-.12-0.07-0.11a0.15,0.15,0,0,0-.14.14,3.88,3.88,0,0,0,0,.39,14.78,14.78,0,0,0,.28,1.58,8.6,8.6,0,0,1,.19.89C63.9,1953.17,63.91,1953,63.88,1952.94Z" transform="translate(-28.44 -1915.92)"/><path d="M103.8,1982.86a0.3,0.3,0,0,0-.39.07c-0.07.06-.12,0.07-0.14,0s0-.11,0-0.17a0.17,0.17,0,0,0-.15-0.14,0.16,0.16,0,0,0-.11.11,1.49,1.49,0,0,1-.6.77c-0.07.08-.25,0.22-0.3-0.07a0.21,0.21,0,0,0-.23-0.19,0.26,0.26,0,0,0-.25.25c0,0.09,0,.18-0.06.27a2.37,2.37,0,0,1-.62,1.34,0.72,0.72,0,0,0-.19.91,0.37,0.37,0,0,0,.2.33,0.56,0.56,0,0,0,.44-0.09,0.52,0.52,0,0,1,.25-0.2,0.61,0.61,0,0,0,.46-0.44c0.06-.13.13-0.26,0.19-0.4a0.34,0.34,0,0,1,.37-0.26,0.87,0.87,0,0,0,.56-0.09,2.15,2.15,0,0,1,.77-0.07,2,2,0,0,0,.86-0.06c0.42-.12.88-0.08,1.3-0.24a1.5,1.5,0,0,0,1-.12,1.63,1.63,0,0,1,.47-0.11,0.52,0.52,0,0,0,.35-0.15L108,1984a0.13,0.13,0,0,0,.06.16,0.88,0.88,0,0,0,.63,0c0.17,0,0-.18,0-0.27a0.15,0.15,0,0,1,0-.09c0.16-.06.23-0.12,0.13-0.32s0.23-.14.27-0.29a0.17,0.17,0,0,0,0-.11,0.42,0.42,0,0,1-.09-0.37,3.27,3.27,0,0,0,.21-0.64,4.33,4.33,0,0,0,.05-1c0-.32.07-0.68-0.42-0.72a0.46,0.46,0,0,1-.11-0.12c-0.2-.16-0.25-0.14-0.28.13s0,0.37-.32.3c-0.13,0-.14.13-0.18,0.24a2.49,2.49,0,0,1-.3.81s0,0.13-.06.14a0.41,0.41,0,0,1,0-.16,2,2,0,0,0,.19-0.92,0.23,0.23,0,0,0-.15-0.27c-0.15,0-.18.08-0.19,0.2a0.55,0.55,0,0,1,0,.16c0,0.1,0,.28-0.16.26s0-.21,0-0.32a0.35,0.35,0,0,0,0-.05,0.26,0.26,0,0,0-.06-0.14,0.13,0.13,0,0,0-.18.09c-0.11.33-.22,0.67-0.33,1,0,0.11-.1.13-0.21,0-0.27-.2-0.27-0.21-0.17-0.53a0.92,0.92,0,0,0,0-.1,0.15,0.15,0,0,0-.09-0.18,0.15,0.15,0,0,0-.19.05,2.61,2.61,0,0,0-.17.35l-0.44,1c0,0.06-.13.14-0.16,0.08-0.2-.39-0.36-0.14-0.53,0,0,0.1-.09.19-0.16,0.13s0-.18.07-0.25a0.25,0.25,0,0,0-.17-0.26,0.26,0.26,0,0,0-.31.18c-0.06.15-.1,0.32-0.18,0.46S103.93,1982.93,103.8,1982.86Zm4.83,0.61h0l0.15-.19C108.83,1983.37,108.76,1983.45,108.64,1983.48Zm0.26-2.72c0.05,0,.09,0,0.11.13a0.11,0.11,0,0,1-.07.1c-0.08,0-.09,0-0.08-0.09A0.22,0.22,0,0,1,108.89,1980.75Zm-0.59,3a0.17,0.17,0,0,1-.11.1Z" transform="translate(-28.44 -1915.92)"/><path d="M70.07,1984.44a3.55,3.55,0,0,0-1.8-1.48c-1-.34-2-0.57-3-0.86a5.41,5.41,0,0,0-1.53-.25,12.56,12.56,0,0,1-1.49-.11H62a0.22,0.22,0,0,0-.24.18c0,0.14.12,0.09,0.19,0.12a1.26,1.26,0,0,1,.25.28c0.13,0.09.25,0.24,0.43,0.07s0.13,0,.14.08,0.17,0.18.3,0.17a2.2,2.2,0,0,1,1,.32,0.19,0.19,0,0,1,.16.19c0,0.1.07,0.15,0.11,0,0.11-.32.44-0.07,0.59-0.26a0.38,0.38,0,0,1,.11.12,2.14,2.14,0,0,1,0,.22,0.19,0.19,0,0,0,.07.13c0.09,0,.11-0.06.16-0.11a0.34,0.34,0,0,0,.08-0.26,0.35,0.35,0,0,1,0-.1,0.6,0.6,0,0,1,.13.07,0.44,0.44,0,0,1,.15.34,2.6,2.6,0,0,0,0,.44c0,0.13.13,0.15,0.24,0s0.06-.19.13-0.14c0.24,0.14.19,0,.15-0.14a0.21,0.21,0,0,1,.08-0.13,0.16,0.16,0,0,1,.19-0.07,0.2,0.2,0,0,1,.08.13,0.77,0.77,0,0,1,0,.28,0.62,0.62,0,0,0,.15.51c0,0.06.07,0.14,0.16,0.11a0.1,0.1,0,0,0,.07-0.16,0.08,0.08,0,0,1,0-.05c0-.13.06-0.32,0.26-0.29a0.25,0.25,0,0,1,.28.3c0,0.17.24,0.25,0.24,0.47s0.16,0,.24.05,0.07,0.1,0,.16a0.1,0.1,0,0,0,0,.14,0.09,0.09,0,0,0,.12-0.08,0.51,0.51,0,0,1,.19-0.31s0-.12.11-0.1a0.18,0.18,0,0,1,.06.13,0.32,0.32,0,0,0,0,.26c0.29,0.13.16,0.34,0.1,0.52s-0.2.48-.3,0.71c0,0-.05.11,0,0.14a0.18,0.18,0,0,0,.15,0c0.1-.1.19-0.22,0.29-0.34s0.11-.16.22-0.08a0.16,0.16,0,0,1,0,.2l-0.46,1.24c0,0.07-.06.15,0,0.19a0.18,0.18,0,0,0,.21,0,0.93,0.93,0,0,0,.3-0.46c0.06-.23.13-0.46,0.2-0.69a0.74,0.74,0,0,1,.09-0.17,1.64,1.64,0,0,1-.24,1.22,1.5,1.5,0,0,0-.19.52c0,0.12,0,.16.15,0.12s0.21,0.06.15,0.18a4.88,4.88,0,0,1-.28.78,0.2,0.2,0,0,0,0,.25c0.12,0.06.18-.08,0.23-0.16a3.51,3.51,0,0,0,.2-0.46c0-.12.07-0.25,0.13-0.37a0.18,0.18,0,0,1,.13-0.1c0.11,0,.08.1,0.08,0.16a5.37,5.37,0,0,1-.35,1.11c-0.07.21-.14,0.42-0.2,0.64a0.17,0.17,0,0,0,.12.22,0.21,0.21,0,0,0,.28-0.1,0.62,0.62,0,0,0,.07-0.21,8.45,8.45,0,0,1,.77-2.13,2.51,2.51,0,0,0,.28-1.4A4.42,4.42,0,0,0,70.07,1984.44Zm-0.76,3.48a0.09,0.09,0,0,1-.12-0.06,1.52,1.52,0,0,1,.32-0.74c0-.06,0-0.05,0,0h0s0,0,0,0A1.27,1.27,0,0,1,69.31,1987.92Zm0.33-1.07s0-.06,0-0.1,0-.06,0-0.1v0.15Z" transform="translate(-28.44 -1915.92)"/><path d="M84,1967.6a3.83,3.83,0,0,0,1.23,1.48,1.36,1.36,0,0,0,1.07.38,5,5,0,0,0,2.09-.47c0.49-.19.94-0.47,1.45-0.63a3.16,3.16,0,0,0,.74-0.22,7.89,7.89,0,0,0,1.33-.8,3.05,3.05,0,0,1,.89-0.55,6,6,0,0,1,1.78-.58,0.29,0.29,0,0,0,.26-0.38,0.22,0.22,0,0,0-.32-0.11,0.85,0.85,0,0,1-.79-0.06,0.84,0.84,0,0,0-.53-0.14,2,2,0,0,1-1,.07,0.26,0.26,0,0,0-.31.25c-0.06.32-.13,0.38-0.41,0.33-0.11,0-.21-0.08-0.31-0.1s-0.22,0-.24.06a0.3,0.3,0,0,1-.41.23,0.16,0.16,0,0,0-.18.09,0.32,0.32,0,0,0,.16.13,1,1,0,0,0,.16,0,0.15,0.15,0,0,1,.08.06,0.09,0.09,0,0,1-.12.05l-0.27-.08c-0.21,0-.42-0.08-0.44.24,0,0.13-.12.11-0.21,0.1l-0.72,0a0.13,0.13,0,0,0-.15.13,0.25,0.25,0,0,0,.07.14,0.29,0.29,0,0,0,.1,0l0.14,0.07-0.14.07a0.59,0.59,0,0,1-.47,0,4.09,4.09,0,0,0-.76-0.14,0.17,0.17,0,0,0-.13.08,0.11,0.11,0,0,0,0,.15,1.75,1.75,0,0,0,.51.2,0.14,0.14,0,0,1,.07.07c0,0.06-.07.06-0.12,0.05a1,1,0,0,1-.32-0.08c-0.24-.09-0.49-0.16-0.74-0.23a0.17,0.17,0,0,0-.2.07c-0.06.09,0,.13,0.07,0.18a1.08,1.08,0,0,0,.45.21,0.22,0.22,0,0,1,.06.14l-0.09,0H87.37a3.68,3.68,0,0,1-.83-0.29c-0.18-.11-0.38-0.35-0.58-0.16s-0.33-.27-0.54-0.13-0.38,0-.49-0.2a0.26,0.26,0,0,0-.29-0.21c-0.16.06-.08,0.22-0.05,0.34a0.08,0.08,0,0,1-.08.11,0.11,0.11,0,0,1-.1,0c-0.06-.07-0.1-0.16-0.15-0.23s-0.14-.21-0.26-0.13-0.05.2,0,.3Zm1.92,0.73a0.23,0.23,0,0,0,.11.12h0a0.11,0.11,0,0,1-.12-0.09Zm-1.28-.51c0.12,0,.1.12,0.14,0.18a0.15,0.15,0,0,1-.07,0,0.17,0.17,0,0,1-.12-0.15A0.1,0.1,0,0,1,84.66,1967.81Z" transform="translate(-28.44 -1915.92)"/><path d="M98.71,1982.15a1,1,0,0,0-.43.09,6.86,6.86,0,0,0-1.49.84,1.15,1.15,0,0,1-.33.2,9.22,9.22,0,0,0-1.87,1.06,7.91,7.91,0,0,0-1.45,1.11c-0.4.46-.79,0.93-1.19,1.39a4.34,4.34,0,0,0-1,2.75,5.66,5.66,0,0,0,.46,2,3.18,3.18,0,0,0,.47.75,0.23,0.23,0,0,0,.38.06,0.23,0.23,0,0,0,.06-0.34l-0.06-.09a3.44,3.44,0,0,1-.48-1.35,0.09,0.09,0,0,1,0-.12,0.48,0.48,0,0,1,.06.09,0.23,0.23,0,0,0,.33.09c0.12-.09,0-0.2,0-0.31s-0.07-.17-0.09-0.26a3.47,3.47,0,0,1-.13-0.93s0-.07,0-0.1a0.39,0.39,0,0,1,.07.07,1.4,1.4,0,0,1,.24.43c0,0.13.14,0.07,0.21,0a0.29,0.29,0,0,0,0-.36,2.42,2.42,0,0,1-.24-0.73,2,2,0,0,1,0-.27,0.52,0.52,0,0,1,.15.18,1.1,1.1,0,0,0,.3.46,0.19,0.19,0,0,0,.29,0,0.2,0.2,0,0,0,0-.29,3.66,3.66,0,0,1-.23-1.51,0.25,0.25,0,0,1,0-.11c0.07,0,.09.05,0.1,0.09,0.07,0.38.35,0.68,0.44,1.06a0.11,0.11,0,0,0,.13.07,0.11,0.11,0,0,0,.09-0.12c0-.2,0-0.4,0-0.61l0,0c-0.08-.13-0.13-0.36,0-0.38s0.13,0.2.16,0.32,0.08,0.14.17,0.09a0.3,0.3,0,0,0,.18-0.36c0-.18-0.1-0.36-0.14-0.54a0.11,0.11,0,0,1,0-.09,0.09,0.09,0,0,1,.09,0,1.3,1.3,0,0,0,.1.13c0.14,0.1.25,0.05,0.26-.12s0-.37,0-0.55,0.06-.24.24-0.17,0.34,0,.29-0.2,0.3-.35.25-0.61c0-.1.1,0,0.15,0a0.2,0.2,0,0,0,.28,0,0.37,0.37,0,0,0,.24-0.48c0-.16-0.06-0.37.23-0.23a0.11,0.11,0,0,0,.1,0,0.47,0.47,0,0,1,.53-0.11,0.24,0.24,0,0,0,.3-0.3,2.14,2.14,0,0,1,0-.55,0.26,0.26,0,0,1,.24-0.26c0.15,0,.12.16,0.13,0.26a0.16,0.16,0,0,0,0,.05c0,0.07,0,.21.14,0.2a0.27,0.27,0,0,0,.23-0.22,0.42,0.42,0,0,0,0-.17,0.68,0.68,0,0,1,.57-0.75l0.37-.11c0.05,0,.11,0,0.1-0.1A0.11,0.11,0,0,0,98.71,1982.15ZM96.53,1984l-0.06,0,0,0,0,0Zm0-.27a0.1,0.1,0,0,1-.11.09,0.12,0.12,0,0,1-.06-0.13,0.1,0.1,0,0,1,.1-0.1C96.57,1983.57,96.56,1983.64,96.54,1983.71Z" transform="translate(-28.44 -1915.92)"/><path d="M69.83,1964.91a7.33,7.33,0,0,0,1.21.77c0.62,0.43,1.3.77,1.93,1.18,0.41,0.26.88,0.37,1.26,0.65a1.19,1.19,0,0,0,.42.13,6.59,6.59,0,0,0,2.07.23,0.68,0.68,0,0,0,.44,0c0.43-.22.88-0.39,1.29-0.65a0.93,0.93,0,0,0,.3-0.74c0-.28-0.27-0.16-0.31-0.26a0.91,0.91,0,0,0-.51-0.24c-0.3-.31-0.29.13-0.44,0.16l-0.22,0a3,3,0,0,0-.58.09c-0.22.07-.41,0.28-0.6-0.05,0-.08-0.2,0-0.31,0a0.7,0.7,0,0,1-.31.05c-0.15-.28-0.38-0.14-0.58-0.12s-0.33.07-.36-0.19a0.16,0.16,0,0,0-.23-0.08c-0.2.09-.39,0.21-0.55-0.07a0.48,0.48,0,0,0-.26,0,0.24,0.24,0,0,1-.27-0.13,0.26,0.26,0,0,0-.29-0.1c-0.26,0-.56.12-0.69-0.25l0,0a0.62,0.62,0,0,1-.61-0.29,0.25,0.25,0,0,0-.26-0.06,1.23,1.23,0,0,1-1.08-.31,0.7,0.7,0,0,0-.17-0.14,0.51,0.51,0,0,0-.27,0,0.16,0.16,0,0,0-.11.26A0.83,0.83,0,0,0,69.83,1964.91Zm6.6,2.36a0.72,0.72,0,0,0,.53,0,0.23,0.23,0,0,1,.08.06,0.19,0.19,0,0,1-.07.07l-0.28,0-0.27,0s-0.11,0-.1-0.07A0.13,0.13,0,0,1,76.43,1967.27Zm-2.11-.34a0.09,0.09,0,0,1,.08.11,0.33,0.33,0,0,1-.12.07,0.31,0.31,0,0,1-.07-0.12C74.21,1966.94,74.28,1966.93,74.33,1966.93Z" transform="translate(-28.44 -1915.92)"/><path d="M59.13,1964.7a0.41,0.41,0,0,1,.26,0c0.33,0.14.33,0.13,0.45-.16a3.1,3.1,0,0,1,.77-1.14c0.6-.52,1.06-1.18,1.66-1.7a0.24,0.24,0,0,0,0-.09,2.73,2.73,0,0,0-1,.73c-0.3.32-.62,0.64-0.94,0.95a2.44,2.44,0,0,0-.66.92,0.9,0.9,0,0,1-.33.42,0.81,0.81,0,0,1-.1-0.55,1.44,1.44,0,0,1,.18-0.58,5.65,5.65,0,0,1,1.57-1.85l1.55-1.07,1.08-.75s0.11,0,.06-0.08a0.11,0.11,0,0,0-.1,0,7.61,7.61,0,0,1-.86.33,2.21,2.21,0,0,0-.49.23c-0.54.53-1.28,0.75-1.85,1.27a6.19,6.19,0,0,0-1.42,1.84,2.54,2.54,0,0,0-.21,1C58.77,1964.66,58.86,1964.73,59.13,1964.7Z" transform="translate(-28.44 -1915.92)"/><path d="M86.61,1992.83a0.22,0.22,0,0,0,0-.31c-0.12-.1-0.2,0-0.27.1s-0.14.17-.2,0.26-0.1.22-.22,0.12,0-.18.07-0.26c0.09-.28.19-0.56,0.25-0.85s0.13-.45-0.07-0.49-0.18.24-.23,0.4a1.93,1.93,0,0,0-.06.21,1.57,1.57,0,0,1-.83,1.11,2.86,2.86,0,0,1-1.45.47H83.52s-0.06,0,0,.08a0.82,0.82,0,0,0,.5.24,5.18,5.18,0,0,0,1.39-.67l0.37-.24a0.09,0.09,0,0,1,.14,0,0.12,0.12,0,0,1,0,.15,2.18,2.18,0,0,1-.55.61l-0.62.47c-0.05,0-.06.08,0,0.13a0.14,0.14,0,0,0,.1,0,0.29,0.29,0,0,0,.16,0c0.25-.25.57-0.4,0.84-0.63A5.74,5.74,0,0,0,86.61,1992.83Z" transform="translate(-28.44 -1915.92)"/><path d="M74.21,1979.07a6.26,6.26,0,0,1,1.39-.53,4.86,4.86,0,0,0,2.53-2.21,2.67,2.67,0,0,0,.13-0.3c0-.08.09-0.19,0-0.25s-0.2,0-.26.13-0.26.4-.37,0.61a3.51,3.51,0,0,1-1.66,1.54,12.14,12.14,0,0,1-1.18.45,4.08,4.08,0,0,1-1.52.25,2,2,0,0,0-.82,0,0.19,0.19,0,0,0-.08.14,0.08,0.08,0,0,0,.11.08,0.69,0.69,0,0,1,.38,0C73.3,1979.17,73.75,1979,74.21,1979.07Z" transform="translate(-28.44 -1915.92)"/><path d="M100.86,1966.28a0.17,0.17,0,0,0,0,.25,2.27,2.27,0,0,1,.53.57,24.51,24.51,0,0,1,1.54,2.69,0.49,0.49,0,0,0,.17.28,0.13,0.13,0,0,0,.1,0,0.31,0.31,0,0,0,.08-0.09l-0.08-.26a7.05,7.05,0,0,0-.88-1.84,14.26,14.26,0,0,0-.82-1.38,0.94,0.94,0,0,0-.45-0.31A0.22,0.22,0,0,0,100.86,1966.28Z" transform="translate(-28.44 -1915.92)"/><path d="M77.26,1993.25a1.86,1.86,0,0,1-1.39-.1,0.62,0.62,0,0,1-.52-0.57,3.17,3.17,0,0,1-.06-0.77,3,3,0,0,1,.06-1.09,0.08,0.08,0,0,0-.08-0.11,0.13,0.13,0,0,0-.09,0,0.55,0.55,0,0,0,0,.1,6.15,6.15,0,0,0-.21,1.62,1.85,1.85,0,0,1,.06.33,0.79,0.79,0,0,0,.66.78c0.26,0.08.53,0.15,0.8,0.22a0.86,0.86,0,0,0,.88-0.34,0.1,0.1,0,0,0,0-.1A0.1,0.1,0,0,0,77.26,1993.25Z" transform="translate(-28.44 -1915.92)"/><path d="M102.36,1975.47a2.73,2.73,0,0,0,.36-1.09c0-.13.17-0.32,0-0.38s-0.21.17-.26,0.31-0.05.1-.07,0.15a8,8,0,0,1-1.79,2.63c-0.13.13-.23,0.28-0.35,0.43a0.09,0.09,0,0,0,0,.14,0.28,0.28,0,0,0,.1,0,0.46,0.46,0,0,0,.37-0.2A23.24,23.24,0,0,0,102.36,1975.47Z" transform="translate(-28.44 -1915.92)"/><path d="M102.5,1966a1.3,1.3,0,0,0-.12-0.3,0.19,0.19,0,0,0-.23-0.09,0.16,0.16,0,0,0-.09.22c0.13,0.36.26,0.72,0.4,1.08a9.05,9.05,0,0,1,.87,2.19,0.2,0.2,0,0,0,.05.1,0.15,0.15,0,0,0,.08.06,0.24,0.24,0,0,0,.11-0.1s0-.11,0,0a3.5,3.5,0,0,0-.41-1.55A11.63,11.63,0,0,1,102.5,1966Z" transform="translate(-28.44 -1915.92)"/><path d="M76,1979a2.56,2.56,0,0,0,1-.49,4.8,4.8,0,0,0,.91-1,0.35,0.35,0,0,0,.11-0.34c-0.11-.08-0.19.11-0.28,0.18a1.82,1.82,0,0,0-.14.17,4.67,4.67,0,0,1-1.28,1,11.73,11.73,0,0,1-2.45.85,0.71,0.71,0,0,0-.3.14s-0.1.06-.06,0.13a0.23,0.23,0,0,0,.09,0,3.91,3.91,0,0,0,1.68-.47A2.61,2.61,0,0,1,76,1979Z" transform="translate(-28.44 -1915.92)"/><path d="M70.66,1983.33c-0.27.09-.29,0.08-0.31-0.13a0.83,0.83,0,0,0,0-.21c-0.06-.14-0.13-0.3-0.31-0.12s-0.14,0-.16,0-0.08-.29-0.14-0.42a0.15,0.15,0,0,0-.23-0.06c-0.08.06,0,.26-0.2,0.2s0-.2-0.07-0.29-0.18-.32-0.28-0.47a0.15,0.15,0,0,0-.19-0.08,0.41,0.41,0,0,1-.4-0.07c-0.13-.06-0.21,0-0.17.15s0.11,0.31.16,0.46,0,0.1.11,0.09a0.11,0.11,0,0,0,.09-0.12c0-.07,0-0.17,0-0.2s0.14,0.09.17,0.16a1.61,1.61,0,0,0,.42.45c0.26-.16.3,0,0.37,0.22s0,0.36.24,0.39,0.24-.24.38,0-0.06.39,0.24,0.29H70.6a0.16,0.16,0,0,0,.1,0,0.22,0.22,0,0,0,.08-0.12C70.76,1983.25,70.7,1983.32,70.66,1983.33Z" transform="translate(-28.44 -1915.92)"/><path d="M95.09,1993.63a7,7,0,0,1-.21-1.65,4.1,4.1,0,0,0-.06-0.77,0.21,0.21,0,0,0-.27-0.21,0.19,0.19,0,0,0-.14.26,13.45,13.45,0,0,0,.37,2.69,0.52,0.52,0,0,0,.17.33c0.07,0,.14.05,0.16,0a1.14,1.14,0,0,0,0-.23A0.8,0.8,0,0,0,95.09,1993.63Z" transform="translate(-28.44 -1915.92)"/><path d="M103.15,1975c-0.25.62-.66,1.14-1,1.73a5.54,5.54,0,0,1-.54.7,0.16,0.16,0,0,0,0,.2,0.15,0.15,0,0,0,.24,0,4.07,4.07,0,0,0,.71-0.85,6.59,6.59,0,0,1,.54-1,2.13,2.13,0,0,0,.35-1,0.2,0.2,0,0,0,0-.12,0.14,0.14,0,0,0-.18.08A1,1,0,0,0,103.15,1975Z" transform="translate(-28.44 -1915.92)"/><path d="M66.49,1989.82a0.17,0.17,0,0,0-.09.23,2.44,2.44,0,0,1,0,1,9.57,9.57,0,0,0-.28,1.6v0c0,0.08-.09.19,0,0.23s0.14-.09.17-0.17a7.38,7.38,0,0,0,.51-2.14,2,2,0,0,0-.07-0.6A0.18,0.18,0,0,0,66.49,1989.82Z" transform="translate(-28.44 -1915.92)"/><path d="M74.38,1980.21l0.12,0a0.76,0.76,0,0,0,.26,0,13.85,13.85,0,0,0,2.22-1.1c0.26-.21.51-0.43,0.78-0.62,0.11-.07.19-0.17,0.29-0.24a0.59,0.59,0,0,0-.39.12,0.56,0.56,0,0,0-.07.08,5.89,5.89,0,0,1-1.5.92c-0.56.27-1.15,0.49-1.73,0.73a0.25,0.25,0,0,0-.06.07A0.33,0.33,0,0,0,74.38,1980.21Z" transform="translate(-28.44 -1915.92)"/><path d="M78.67,1980.72s0.16-.06.09-0.15a0.18,0.18,0,0,0-.21,0,2.46,2.46,0,0,0-1.17,1,1.63,1.63,0,0,0-.15.49l0,0.09c0,0.22.07,0.24,0.33,0.26s0.17-.15.15-0.25a0.83,0.83,0,0,1,.25-0.7C78.22,1981.25,78.44,1981,78.67,1980.72Z" transform="translate(-28.44 -1915.92)"/><path d="M59.89,1961.18a1.33,1.33,0,0,0,.59-0.57A1.93,1.93,0,0,1,61,1960a4.6,4.6,0,0,1,1.94-1,0.18,0.18,0,0,0,.06,0,0.14,0.14,0,0,0-.13-0.11,4.17,4.17,0,0,0-1.47.61,11.45,11.45,0,0,0-1.7,1.58,0.08,0.08,0,0,0,0,.14A0.12,0.12,0,0,0,59.89,1961.18Z" transform="translate(-28.44 -1915.92)"/><path d="M75.44,1993.94a0.81,0.81,0,0,1-.79-0.72,3.63,3.63,0,0,1-.24-0.91,0.16,0.16,0,0,0-.18-0.16c-0.18,0-.14.13-0.13,0.24a3.52,3.52,0,0,0,.32,1.17,0.87,0.87,0,0,0,.72.63l0.31,0a0.12,0.12,0,0,0,.1-0.12A0.09,0.09,0,0,0,75.44,1993.94Z" transform="translate(-28.44 -1915.92)"/><path d="M82.07,1980.46H82s-0.08,0,0,0a9,9,0,0,1,.79,1.37,0.29,0.29,0,0,0,.18.19,0.29,0.29,0,0,0,.31,0,0.25,0.25,0,0,0,0-.26,4.28,4.28,0,0,0-.84-1.28,0.25,0.25,0,0,0-.25-0.08Z" transform="translate(-28.44 -1915.92)"/><path d="M62.82,1962.26a1.61,1.61,0,0,0-1,.6,4.58,4.58,0,0,1-.74.81,0.78,0.78,0,0,0-.24.3s0,0.11,0,.15a0.22,0.22,0,0,0,.15,0,1.17,1.17,0,0,0,.49-0.43,6.23,6.23,0,0,1,1.27-1.28l0.12-.08C62.93,1962.23,62.86,1962.25,62.82,1962.26Z" transform="translate(-28.44 -1915.92)"/><path d="M83.36,1976.45c-0.22-.36-0.43-0.73-0.65-1.09a0.21,0.21,0,0,0-.19-0.1c-0.1,0-.2.09-0.15,0.19,0.19,0.42.4,0.83,0.61,1.23a0.2,0.2,0,0,0,.29,0A0.17,0.17,0,0,0,83.36,1976.45Z" transform="translate(-28.44 -1915.92)"/><path d="M59.92,1959.68l0.08-.07a3,3,0,0,1,1.9-1.29,0.27,0.27,0,0,0,.14-0.08,0.21,0.21,0,0,0,.07-0.14A0.1,0.1,0,0,0,62,1958a3.36,3.36,0,0,0-1.8,1,1.83,1.83,0,0,0-.3.51A0.08,0.08,0,0,0,59.92,1959.68Z" transform="translate(-28.44 -1915.92)"/><path d="M75.76,1980.31a0.42,0.42,0,0,0,.27-0.06,8.31,8.31,0,0,1,1.06-.47,1.49,1.49,0,0,0,.74-0.48,0.13,0.13,0,0,0,0-.1c0-.07-0.09-0.05-0.14,0a6.87,6.87,0,0,1-1.59.76,2.16,2.16,0,0,0-.38.22,0.13,0.13,0,0,0,0,.09A0.16,0.16,0,0,0,75.76,1980.31Z" transform="translate(-28.44 -1915.92)"/><path d="M86.52,1993.54a2.32,2.32,0,0,1-1.07,1,0.69,0.69,0,0,0-.1,0,0.11,0.11,0,0,0,0,.1,0.1,0.1,0,0,0,.08.05,2.14,2.14,0,0,0,1.33-1,0.44,0.44,0,0,0,0-.16,0.23,0.23,0,0,0-.06-0.09A0.14,0.14,0,0,0,86.52,1993.54Z" transform="translate(-28.44 -1915.92)"/><path d="M103,1976.81a0.32,0.32,0,0,0,.16,0,0.14,0.14,0,0,0,.09-0.06c0.23-.33.47-0.66,0.69-1a1.63,1.63,0,0,0,.13-0.41,0.17,0.17,0,0,0,0-.06c-0.07,0-.1,0-0.13.07a14.38,14.38,0,0,1-.92,1.31A0.08,0.08,0,0,0,103,1976.81Z" transform="translate(-28.44 -1915.92)"/><path d="M83,1974.31h0l0.07-.05a0.09,0.09,0,0,0-.08,0h0Z" transform="translate(-28.44 -1915.92)"/><path d="M82.74,1973.06c-0.13.06-.09,0.16,0,0.27,0.13,0.26.23,0.53,0.35,0.8a0.13,0.13,0,0,1,0,.12h0.05c0.39-.07.42-0.15,0.22-0.49s-0.22-.38-0.32-0.58A0.2,0.2,0,0,0,82.74,1973.06Z" transform="translate(-28.44 -1915.92)"/><path d="M82.9,1977.88a0.17,0.17,0,0,0,.24.07,0.16,0.16,0,0,0,.07-0.19,1.7,1.7,0,0,0-.78-0.95H82.37l-0.09.06a0.11,0.11,0,0,0,0,.14Z" transform="translate(-28.44 -1915.92)"/><path d="M83.57,1972.9a0.24,0.24,0,0,0,.24-0.08,0.12,0.12,0,0,0,0-.19c-0.16-.2-0.3-0.41-0.47-0.6a0.83,0.83,0,0,0-.42-0.25,0.25,0.25,0,0,0-.06.07,0.12,0.12,0,0,0,0,.1,2.24,2.24,0,0,1,.5.77A0.39,0.39,0,0,0,83.57,1972.9Z" transform="translate(-28.44 -1915.92)"/><path d="M73.66,1993.22a0.26,0.26,0,0,0-.12-0.07,0.14,0.14,0,0,0-.14.15,1.24,1.24,0,0,0,.59,1,0.34,0.34,0,0,0,.21,0,0.24,0.24,0,0,0,.13-0.09,0.11,0.11,0,0,0,0-.09A3.46,3.46,0,0,1,73.66,1993.22Z" transform="translate(-28.44 -1915.92)"/><path d="M58.26,1938.24a5.16,5.16,0,0,0-1.7.73l-0.07.08a0.11,0.11,0,0,0,0,.15,0.08,0.08,0,0,0,.14,0,1.15,1.15,0,0,1,.65-0.39c0.35-.12.69-0.26,1-0.4a0.11,0.11,0,0,0,.1-0.11A0.11,0.11,0,0,0,58.26,1938.24Z" transform="translate(-28.44 -1915.92)"/><path d="M82.73,1974.23c-0.07.07,0,.11,0,0.18a4,4,0,0,0,.35,1,0.59,0.59,0,0,0,.14.17,0.18,0.18,0,0,0,.24.06,0.16,0.16,0,0,0,0-.24,2.33,2.33,0,0,1-.21-0.32,1.43,1.43,0,0,1-.34-0.75,0.14,0.14,0,0,1-.08,0C82.83,1974.31,82.74,1974.22,82.73,1974.23Z" transform="translate(-28.44 -1915.92)"/><path d="M92.33,1985.23a4.41,4.41,0,0,1,.14-0.47c0-.09.1-0.21,0.25-0.11s0.2,0,.22-0.13a1.24,1.24,0,0,1,.08-0.26,0.59,0.59,0,0,1,.09-0.12c-0.07,0-.08,0-0.12.06a0.89,0.89,0,0,1-.31.29,0.85,0.85,0,0,0-.55.71,0.08,0.08,0,0,0,.07.12A0.12,0.12,0,0,0,92.33,1985.23Z" transform="translate(-28.44 -1915.92)"/><path d="M91.21,1986.4a0.1,0.1,0,0,0,0,0,0.16,0.16,0,0,0-.1,0,0.44,0.44,0,0,0-.16.34c0,0.22,0,.28-0.22.2s-0.24.05-.31,0.18a1.19,1.19,0,0,1-.09.36,0.07,0.07,0,0,0,.06.11,0.18,0.18,0,0,0,.14,0c0-.12,0-0.25.08-0.37s0.1-.25.27-0.17,0.13,0,.13-0.07a0.73,0.73,0,0,1,.2-0.42A0.36,0.36,0,0,0,91.21,1986.4Z" transform="translate(-28.44 -1915.92)"/><path d="M67.62,1981.25a0.13,0.13,0,0,0-.19.11c0.06,0.27.16,0.54,0.25,0.81a0.06,0.06,0,0,0,0,0l0.07-.08-0.08-.18a0.32,0.32,0,0,1,0-.31A0.24,0.24,0,0,0,67.62,1981.25Z" transform="translate(-28.44 -1915.92)"/><path d="M65.36,1981.33a0.17,0.17,0,0,0,.1,0,0.15,0.15,0,0,0,0-.06,0.48,0.48,0,0,0-.13-0.16c-0.17-.08,0-0.54-0.33-0.34s0.17,0.3.2,0.48A0.22,0.22,0,0,0,65.36,1981.33Z" transform="translate(-28.44 -1915.92)"/><path d="M66.68,1980.87a0.2,0.2,0,0,0-.09,0,0.27,0.27,0,0,0,0,.25,0.31,0.31,0,0,0,.24.19c0.08,0,0-.07,0-0.09a0.21,0.21,0,0,1,0-.19C66.94,1980.9,66.8,1980.89,66.68,1980.87Z" transform="translate(-28.44 -1915.92)"/><path d="M94.52,1983.62a0.94,0.94,0,0,1,0-.15c0-.08.08-0.16,0.12-0.24a0.36,0.36,0,0,0,.06-0.35h0a0.33,0.33,0,0,0-.18.36,1.38,1.38,0,0,1,0,.23S94.43,1983.57,94.52,1983.62Z" transform="translate(-28.44 -1915.92)"/><path d="M93.77,1983.91c0-.17.09-0.34,0.14-0.51l0,0a0.41,0.41,0,0,0-.28.55l0,0S93.75,1984,93.77,1983.91Z" transform="translate(-28.44 -1915.92)"/><path d="M91.75,1985.89c0-.06,0-0.15-0.07-0.17s-0.1.08-.13,0.14a0.22,0.22,0,0,0,0,.29,0.1,0.1,0,0,0,.09,0A0.31,0.31,0,0,0,91.75,1985.89Z" transform="translate(-28.44 -1915.92)"/><path d="M65.78,1980.8h0a0.17,0.17,0,0,0,0,.1,0.79,0.79,0,0,0,.05.12,0.59,0.59,0,0,1,.05-0.12C65.85,1980.86,65.84,1980.82,65.78,1980.8Z" transform="translate(-28.44 -1915.92)"/><path d="M65.77,1981.11l0,0,0-.06v0C65.73,1981.13,65.72,1981.17,65.77,1981.11Z" transform="translate(-28.44 -1915.92)"/><path d="M65.8,1981.14h0c0.06,0,0-.07,0,0v0A0.08,0.08,0,0,1,65.8,1981.14Z" transform="translate(-28.44 -1915.92)"/><path d="M93.35,1998.22a1.5,1.5,0,0,0-.25-0.1,0.14,0.14,0,0,0-.14.09,0.18,0.18,0,0,0,0,.14,0.54,0.54,0,0,0,.17.13c0.08,0,.18.17,0.27,0A0.2,0.2,0,0,0,93.35,1998.22Z" transform="translate(-28.44 -1915.92)"/><path d="M62.45,1961.54l0,0-0.12.06h0Z" transform="translate(-28.44 -1915.92)"/><path d="M97.26,1988.53v0h0.08a0.65,0.65,0,0,0,.37-0.22l0.21,0a0.31,0.31,0,0,0,.09-0.06,0.33,0.33,0,0,0-.12-0.07,0.18,0.18,0,0,0-.21.11,1.46,1.46,0,0,0-.48.2h0v0a0.18,0.18,0,0,0-.05.13S97.23,1988.61,97.26,1988.53Z" transform="translate(-28.44 -1915.92)"/><path d="M125.53,1921.46a4.08,4.08,0,0,0,2.24,1.92,4.33,4.33,0,0,1,1.93.89,0.14,0.14,0,0,0,.2,0,1.4,1.4,0,0,0,.12-0.14,0.31,0.31,0,0,0-.15-0.26,3,3,0,0,0-1.13-.54,4.31,4.31,0,0,1-2.76-2.2,10.14,10.14,0,0,1-.76-1.71,0.24,0.24,0,0,0-.28-0.2,0.27,0.27,0,0,0-.23.33,1.71,1.71,0,0,0,.12.42C125.06,1920.47,125.27,1921,125.53,1921.46Z" transform="translate(-28.44 -1915.92)"/><path d="M55.19,1986h0v0h0Z" transform="translate(-28.44 -1915.92)"/><path d="M55.13,1985.67a0.25,0.25,0,0,0-.16-0.18,0.35,0.35,0,0,0-.55,0c-0.11.12-.19,0-0.21-0.1s0.09-.34-0.13-0.34a0.2,0.2,0,0,1-.24-0.2,0.14,0.14,0,0,0-.25-0.07,0.88,0.88,0,0,0-.09.63c0,0.17.18,0,.27,0a0.15,0.15,0,0,1,.09,0c0,0.17.1,0.25,0.31,0.16s0.12,0.25.27,0.3a0.17,0.17,0,0,0,.1,0,0.76,0.76,0,0,1,.63,0C55.05,1985.92,55.15,1985.78,55.13,1985.67Z" transform="translate(-28.44 -1915.92)"/><path d="M53.25,1984.74a0.25,0.25,0,0,0-.27.27,0.21,0.21,0,0,0,.15.2c0.1,0,.23-0.05.22-0.19S53.4,1984.79,53.25,1984.74Z" transform="translate(-28.44 -1915.92)"/><path d="M58.47,1986.87l-0.16-.05a2.43,2.43,0,0,1-1.08-.5,0.74,0.74,0,0,0-1.08.1,3.82,3.82,0,0,1-.53.47c-0.72.57-1.45,1.13-2.17,1.69a2.76,2.76,0,0,1-.5.43,0.14,0.14,0,0,0-.07.18,0.3,0.3,0,0,0,.19.1,1,1,0,0,0,.21,0,0.58,0.58,0,0,1,.5-0.09c0.16,0.09.14-.27,0.32-0.32a1.68,1.68,0,0,1,.45-0.2,0.22,0.22,0,0,0,.27-0.21c0-.06.09-0.14,0.12,0s0,0.3.15,0.31a0.43,0.43,0,0,0,.3-0.23c0.07-.09.13-0.18,0.2-0.26a0.24,0.24,0,0,1,.14,0c0.16,0.29.21,0.05,0.29-.05s0.25-.19.32,0,0.2,0.29.37,0.05a0.14,0.14,0,0,1,.15,0c0.23,0,.29-0.09.31-0.29a1.94,1.94,0,0,1,.08-0.32,0.27,0.27,0,0,1,.06-0.13c0.07,0,.06.07,0.07,0.13a0.29,0.29,0,0,0,0,.11,0.34,0.34,0,0,0,.18.25c0.14,0,.16-0.12.21-0.21a1.75,1.75,0,0,1,.17-0.22,0.44,0.44,0,0,1,.08.09c0,0.12.1,0.23,0.19,0a1,1,0,0,1,.29-0.24c0.09-.09.28-0.1,0.25-0.26A0.36,0.36,0,0,0,58.47,1986.87Zm-2.55.21c-0.05,0-.07,0,0,0l0,0,0,0A0.1,0.1,0,0,1,55.92,1987.08Z" transform="translate(-28.44 -1915.92)"/><path d="M50.65,1984.09c0,0.08-.12.18,0,0.22a0.15,0.15,0,0,0,.16-0.12c0-.08.12-0.19,0.19-0.09s0.19,0.1.25,0a2.65,2.65,0,0,0,.33-0.5,0.17,0.17,0,0,0-.22-0.24c-0.19.08-.27,0.11-0.32-0.16a0.93,0.93,0,0,1,0-.62,1.29,1.29,0,0,0-.21-0.63c0-.09-0.1,0-0.1,0a2.43,2.43,0,0,0,0,1.29,0.56,0.56,0,0,1,0,.51A0.63,0.63,0,0,0,50.65,1984.09Z" transform="translate(-28.44 -1915.92)"/><path d="M111.6,1936.78c0,0.22.27,0.27,0.26,0.48a0.11,0.11,0,0,0,.13.12,0.32,0.32,0,0,1,.26,0c0.2,0.17.25,0,.29-0.14a0.39,0.39,0,0,0-.1-0.4c-0.16-.17-0.31-0.36-0.47-0.54a1.12,1.12,0,0,0-.53-0.41,1.33,1.33,0,0,0-.06.36C111.35,1936.49,111.3,1936.7,111.6,1936.78Z" transform="translate(-28.44 -1915.92)"/><path d="M111.45,1935.91v0h0Z" transform="translate(-28.44 -1915.92)"/><path d="M109,1932.67a7.71,7.71,0,0,0,.47.65,2,2,0,0,1,.42.75,1,1,0,0,0,.13.18,0.16,0.16,0,0,0,.21,0,1.82,1.82,0,0,0,.31-0.19q0.83-.73,1.65-1.47a2.08,2.08,0,0,0,.29-0.33,0.17,0.17,0,0,0,0-.15,0.09,0.09,0,0,0-.14,0,0.43,0.43,0,0,1-.65.05c-0.16-.09-0.22,0-0.25.13s-0.22.36-.34,0.21-0.23-.15-0.25.07a0.17,0.17,0,0,1-.08.18c-0.12,0-.12-0.09-0.17-0.16s-0.19-.16-0.26,0-0.16.27-.3,0-0.21-.22-0.31-0.13-0.35.08-.48-0.1a0.11,0.11,0,0,0-.19,0C109,1932.5,108.92,1932.59,109,1932.67Z" transform="translate(-28.44 -1915.92)"/><path d="M114.44,1940.7a3.69,3.69,0,0,0,.74-0.82,1.11,1.11,0,0,1,.24-0.3c0.53-.36.81-1,1.31-1.34a0.15,0.15,0,0,0,0-.15,0.13,0.13,0,0,0-.19,0,1.61,1.61,0,0,1-.38.23,0.48,0.48,0,0,0-.37.38,0.27,0.27,0,0,1,0,.1,0.13,0.13,0,0,1-.09.05,0.1,0.1,0,0,1-.07-0.06,1.08,1.08,0,0,1,0-.16,0.13,0.13,0,0,0-.15-0.13,0.13,0.13,0,0,0-.12.15c0,0.15,0,.3,0,0.44a0.37,0.37,0,0,1-.08.26,0.18,0.18,0,0,1-.17.11c-0.07,0-.06-0.09-0.05-0.14a0.71,0.71,0,0,0-.09-0.48,0.15,0.15,0,0,0-.09-0.06,0.1,0.1,0,0,0-.11.09,1.13,1.13,0,0,0,0,.16,0.22,0.22,0,0,1-.05.14c-0.1,0-.11,0-0.14-0.11a0.17,0.17,0,0,0-.22-0.1,0.18,0.18,0,0,0-.1.18,1.75,1.75,0,0,0,0,.91,0.21,0.21,0,0,1-.06.27,0.13,0.13,0,0,1-.09,0c-0.09,0,0-.08,0-0.11a0.8,0.8,0,0,1,.07-0.47,1,1,0,0,1-.09-0.48c0-.11-0.07-0.15-0.19-0.13a0.17,0.17,0,0,0-.19.21c0,0.12.07,0.24,0.09,0.37s0,0.17-.09.14a0.12,0.12,0,0,1-.07-0.13c0-.4,0-0.4-0.31-0.49s-0.32-.09-0.37.23a7.07,7.07,0,0,0,.38,2.17,0.13,0.13,0,0,0,.18.08,1,1,0,0,0,.49-0.41A1.31,1.31,0,0,1,114.44,1940.7Zm0.1-1.41a0.13,0.13,0,0,1,.08-0.07,0.1,0.1,0,0,1,.09,0,0.52,0.52,0,0,0,.12.38c0.08,0.06-.09.11-0.15,0.15s-0.12,0-.13-0.09l0-.29A0.77,0.77,0,0,1,114.55,1939.29Zm-0.8,1.6a0.11,0.11,0,0,1-.13.07,0.09,0.09,0,0,1-.09-0.11,1,1,0,0,0,.13-0.29,0.47,0.47,0,0,1,0-.36,0.55,0.55,0,0,1,.07.36A0.53,0.53,0,0,1,113.75,1940.89Z" transform="translate(-28.44 -1915.92)"/></svg>