<?xml version="1.0" encoding="UTF-8"?>
<svg width="13px" height="27px" viewBox="0 0 13 27" version="1.1" xmlns="http://www.w3.org/2000/svg" xmlns:xlink="http://www.w3.org/1999/xlink">
    <!-- Generator: Sketch 40.2 (33826) - http://www.bohemiancoding.com/sketch -->
    <title>facebook</title>
    <desc>Created with Sketch.</desc>
    <defs></defs>
    <g id="Page-1" stroke="none" stroke-width="1" fill="none" fill-rule="evenodd">
        <g id="Desktop-HD-Copy" transform="translate(-387.000000, -5282.000000)" fill="#000000">
            <path d="M390.318583,5308.74765 L390.318583,5296.19683 L387,5296.19683 L387,5291.67776 L390.318583,5291.67776 L390.318583,5287.81807 C390.318583,5284.78503 392.278911,5282 396.795783,5282 C398.624674,5282 399.977322,5282.17533 399.977322,5282.17533 L399.870515,5286.39519 C399.870515,5286.39519 398.491287,5286.38178 396.986232,5286.38178 C395.3573,5286.38178 395.096378,5287.13236 395.096378,5288.37844 C395.096378,5289.36336 395.096378,5286.27912 395.096378,5291.678 L400,5291.678 L399.786629,5296.19707 L395.096378,5296.19707 L395.096378,5308.74789 L390.318583,5308.74789 L390.318583,5308.74765 Z" id="facebook"></path>
        </g>
    </g>
</svg>