<?xml version="1.0" encoding="UTF-8"?>
<svg width="28px" height="28px" viewBox="0 0 28 28" version="1.1" xmlns="http://www.w3.org/2000/svg" xmlns:xlink="http://www.w3.org/1999/xlink">
    <!-- Generator: Sketch 40.2 (33826) - http://www.bohemiancoding.com/sketch -->
    <title>Github</title>
    <desc>Created with Sketch.</desc>
    <defs></defs>
    <g id="Page-1" stroke="none" stroke-width="1" fill="none" fill-rule="evenodd">
        <g id="Desktop-HD-Copy" transform="translate(-465.000000, -5282.000000)" fill="#000000">
            <path d="M478.999125,5282 C471.2685,5282 465,5288.29247 465,5296.05638 C465,5302.26539 469.011,5307.53357 474.575125,5309.39241 C475.275125,5309.52154 475.530625,5309.08758 475.530625,5308.71511 C475.530625,5308.38129 475.518375,5307.49755 475.511375,5306.32479 C471.61675,5307.17427 470.795125,5304.44048 470.795125,5304.44048 C470.159,5302.81707 469.241125,5302.38486 469.241125,5302.38486 C467.96975,5301.51254 469.337375,5301.53011 469.337375,5301.53011 C470.74175,5301.62938 471.481125,5302.97871 471.481125,5302.97871 C472.730625,5305.12656 474.758,5304.50636 475.556,5304.14619 C475.682875,5303.23786 476.045125,5302.61854 476.445,5302.26715 C473.336125,5301.91225 470.068,5300.70699 470.068,5295.3211 C470.068,5293.78641 470.613125,5292.53196 471.509125,5291.54895 C471.36475,5291.19317 470.884375,5289.76478 471.645625,5287.82952 C471.645625,5287.82952 472.821625,5287.45178 475.495625,5289.27021 C476.613,5288.95835 477.81,5288.80286 479.000875,5288.79671 C480.19,5288.80286 481.387875,5288.95835 482.506125,5289.27021 C485.178375,5287.45178 486.35175,5287.82952 486.35175,5287.82952 C487.115625,5289.76478 486.63525,5291.19317 486.490875,5291.54895 C487.388625,5292.53196 487.93025,5293.78641 487.93025,5295.3211 C487.93025,5300.72017 484.656875,5301.90873 481.538375,5302.25661 C482.040625,5302.69057 482.488625,5303.54796 482.488625,5304.85951 C482.488625,5306.73855 482.471125,5308.25391 482.471125,5308.71511 C482.471125,5309.09109 482.723125,5309.52857 483.433625,5309.39065 C488.9925,5307.5283 493,5302.26363 493,5296.05638 C493,5288.29247 486.7315,5282 478.999125,5282" id="Github"></path>
        </g>
    </g>
</svg>