<?xml version="1.0" encoding="UTF-8"?>
<svg width="29px" height="29px" viewBox="0 0 29 29" version="1.1" xmlns="http://www.w3.org/2000/svg" xmlns:xlink="http://www.w3.org/1999/xlink">
    <!-- Generator: Sketch 40.2 (33826) - http://www.bohemiancoding.com/sketch -->
    <title>Instagram</title>
    <desc>Created with Sketch.</desc>
    <defs></defs>
    <g id="Page-1" stroke="none" stroke-width="1" fill="none" fill-rule="evenodd">
        <g id="Desktop-HD-Copy" transform="translate(-419.000000, -5281.000000)" fill="#000000">
            <path d="M433.500029,5281 C429.562036,5281 429.068248,5281.01669 427.521669,5281.08726 C425.978313,5281.15765 424.924256,5281.40279 424.001949,5281.76126 C423.048446,5282.13176 422.239816,5282.62756 421.433661,5283.43366 C420.627563,5284.23982 420.13176,5285.04845 419.76126,5286.00195 C419.40279,5286.92426 419.157651,5287.97831 419.087258,5289.52167 C419.016692,5291.06825 419,5291.56204 419,5295.50003 C419,5299.43796 419.016692,5299.93175 419.087258,5301.47833 C419.157651,5303.02169 419.40279,5304.07574 419.76126,5304.99805 C420.13176,5305.95155 420.627563,5306.76018 421.433661,5307.56634 C422.239816,5308.37244 423.048446,5308.86824 424.001949,5309.2388 C424.924256,5309.59721 425.978313,5309.84235 427.521669,5309.91274 C429.068248,5309.98331 429.562036,5310 433.500029,5310 C437.437964,5310 437.931752,5309.98331 439.478331,5309.91274 C441.021687,5309.84235 442.075744,5309.59721 442.998051,5309.2388 C443.951554,5308.86824 444.760184,5308.37244 445.566339,5307.56634 C446.372437,5306.76018 446.86824,5305.95155 447.238798,5304.99805 C447.59721,5304.07574 447.842349,5303.02169 447.912742,5301.47833 C447.983308,5299.93175 448,5299.43796 448,5295.50003 C448,5291.56204 447.983308,5291.06825 447.912742,5289.52167 C447.842349,5287.97831 447.59721,5286.92426 447.238798,5286.00195 C446.86824,5285.04845 446.372437,5284.23982 445.566339,5283.43366 C444.760184,5282.62756 443.951554,5282.13176 442.998051,5281.76126 C442.075744,5281.40279 441.021687,5281.15765 439.478331,5281.08726 C437.931752,5281.01669 437.437964,5281 433.500029,5281 Z M433.500029,5283.61261 C437.371657,5283.61261 437.830278,5283.6274 439.359244,5283.69716 C440.77298,5283.76163 441.540744,5283.99784 442.051685,5284.19642 C442.728508,5284.45946 443.211533,5284.77366 443.718905,5285.28109 C444.226335,5285.78847 444.540544,5286.27149 444.803583,5286.94832 C445.002157,5287.45926 445.238375,5288.22702 445.30284,5289.64076 C445.3726,5291.16972 445.387392,5291.62834 445.387392,5295.50003 C445.387392,5299.37166 445.3726,5299.83028 445.30284,5301.35924 C445.238375,5302.77298 445.002157,5303.54074 444.803583,5304.05168 C444.540544,5304.72851 444.226335,5305.21153 443.718905,5305.71891 C443.211533,5306.22634 442.728508,5306.54054 442.051685,5306.80358 C441.540744,5307.00216 440.77298,5307.23837 439.359244,5307.30284 C437.830508,5307.3726 437.371945,5307.38739 433.500029,5307.38739 C429.628055,5307.38739 429.16955,5307.3726 427.640756,5307.30284 C426.22702,5307.23837 425.459256,5307.00216 424.948315,5306.80358 C424.271492,5306.54054 423.788467,5306.22634 423.281095,5305.71891 C422.773722,5305.21153 422.459456,5304.72851 422.196417,5304.05168 C421.997843,5303.54074 421.761625,5302.77298 421.69716,5301.35924 C421.6274,5299.83028 421.612608,5299.37166 421.612608,5295.50003 C421.612608,5291.62834 421.6274,5291.16972 421.69716,5289.64076 C421.761625,5288.22702 421.997843,5287.45926 422.196417,5286.94832 C422.459456,5286.27149 422.773665,5285.78847 423.281095,5285.28109 C423.788467,5284.77366 424.271492,5284.45946 424.948315,5284.19642 C425.459256,5283.99784 426.22702,5283.76163 427.640756,5283.69716 C429.169722,5283.6274 429.628343,5283.61261 433.500029,5283.61261 Z M433.500029,5288.05406 C429.387694,5288.05406 426.054059,5291.38769 426.054059,5295.50003 C426.054059,5299.61231 429.387694,5302.94594 433.500029,5302.94594 C437.612306,5302.94594 440.945941,5299.61231 440.945941,5295.50003 C440.945941,5291.38769 437.612306,5288.05406 433.500029,5288.05406 Z M433.500029,5300.33333 C430.830611,5300.33333 428.666667,5298.16939 428.666667,5295.50003 C428.666667,5292.83061 430.830611,5290.66667 433.500029,5290.66667 C436.169389,5290.66667 438.333333,5292.83061 438.333333,5295.50003 C438.333333,5298.16939 436.169389,5300.33333 433.500029,5300.33333 Z M442.98015,5287.75988 C442.98015,5288.72087 442.201105,5289.49985 441.240119,5289.49985 C440.279191,5289.49985 439.500146,5288.72087 439.500146,5287.75988 C439.500146,5286.79889 440.279191,5286.01985 441.240119,5286.01985 C442.201105,5286.01985 442.98015,5286.79889 442.98015,5287.75988 Z" id="Instagram"></path>
        </g>
    </g>
</svg>