<?xml version="1.0" encoding="UTF-8"?>
<svg width="30px" height="27px" viewBox="0 0 30 27" version="1.1" xmlns="http://www.w3.org/2000/svg" xmlns:xlink="http://www.w3.org/1999/xlink">
    <!-- Generator: Sketch 40.2 (33826) - http://www.bohemiancoding.com/sketch -->
    <title>linkedin</title>
    <desc>Created with Sketch.</desc>
    <defs></defs>
    <g id="Page-1" stroke="none" stroke-width="1" fill="none" fill-rule="evenodd">
        <g id="Desktop-HD-Copy" transform="translate(-332.000000, -5159.000000)" fill="#000000">
            <path d="M332.73588,5167.50931 L338.425105,5167.50931 L338.425105,5185.536 L332.73588,5185.536 L332.73588,5167.50931 Z M353.969586,5167.33602 C350.710349,5167.33602 348.668083,5169.10134 348.290648,5170.33889 L348.290648,5167.50931 L341.899568,5167.50931 C341.981859,5169.01193 341.899568,5185.536 341.899568,5185.536 L348.290648,5185.536 L348.290648,5175.78123 C348.290648,5175.23922 348.265327,5174.6972 348.429911,5174.30789 C348.869066,5173.22385 349.81305,5172.09946 351.510322,5172.09946 C353.729832,5172.09946 354.7387,5173.76587 354.7387,5176.20773 L354.7387,5185.536 L361.189917,5185.536 L361.189917,5175.51299 C361.189917,5169.92901 358.012971,5167.33602 353.969586,5167.33602 Z M335.475254,5159 C333.374434,5159 332,5160.34911 332,5162.12947 C332,5163.87659 333.335662,5165.25498 335.394544,5165.25498 L335.43569,5165.25498 C337.574491,5165.25498 338.906197,5163.87184 338.906197,5162.12472 C338.865051,5160.34595 337.574491,5159 335.475254,5159 Z" id="linkedin"></path>
        </g>
    </g>
</svg>