<?xml version="1.0" encoding="UTF-8"?>
<svg width="28px" height="24px" viewBox="0 0 28 24" version="1.1" xmlns="http://www.w3.org/2000/svg" xmlns:xlink="http://www.w3.org/1999/xlink">
    <!-- Generator: Sketch 40.2 (33826) - http://www.bohemiancoding.com/sketch -->
    <title>Twitter</title>
    <desc>Created with Sketch.</desc>
    <defs></defs>
    <g id="Page-1" stroke="none" stroke-width="1" fill="none" fill-rule="evenodd">
        <g id="Desktop-HD-Copy" transform="translate(-343.000000, -5284.000000)" fill="#000000">
            <path d="M370.227725,5284.43137 C369.116786,5285.10571 367.889221,5285.59613 366.577177,5285.85854 C365.532027,5284.71471 364.038315,5284 362.384615,5284 C359.214776,5284 356.642272,5286.63755 356.642272,5289.89037 C356.642272,5290.35239 356.691613,5290.8002 356.790297,5291.23157 C352.0161,5290.98561 347.783916,5288.64337 344.949003,5285.07505 C344.454089,5285.94826 344.171495,5286.96126 344.171495,5288.04005 C344.171495,5290.0825 345.185246,5291.88572 346.727552,5292.94209 C345.787066,5292.91368 344.899661,5292.64604 344.123648,5292.20794 L344.123648,5292.27971 C344.123648,5295.13481 346.10405,5297.51667 348.73412,5298.0557 C348.252663,5298.194 347.744293,5298.26353 347.220223,5298.26353 C346.850159,5298.26353 346.489066,5298.22765 346.139188,5298.15887 C346.870344,5300.49812 348.990548,5302.20191 351.504739,5302.24751 C349.539289,5303.82794 347.060983,5304.76992 344.370358,5304.76992 C343.906843,5304.76992 343.448562,5304.74301 343,5304.68918 C345.541852,5306.35784 348.562919,5307.33346 351.806024,5307.33346 C362.373401,5307.33346 368.150135,5298.35922 368.150135,5290.57443 C368.150135,5290.318 368.145649,5290.06232 368.13593,5289.81112 C369.258083,5288.98054 370.232959,5287.94361 371,5286.7624 C369.971297,5287.2304 368.863349,5287.54738 367.701573,5287.68942 C368.88802,5286.96126 369.798601,5285.80696 370.227725,5284.43137" id="Twitter"></path>
        </g>
    </g>
</svg>