<?xml version="1.0" encoding="UTF-8"?>
<svg width="28px" height="28px" viewBox="0 0 28 28" version="1.1" xmlns="http://www.w3.org/2000/svg" xmlns:xlink="http://www.w3.org/1999/xlink">
    <!-- Generator: Sketch 40.2 (33826) - http://www.bohemiancoding.com/sketch -->
    <title>website</title>
    <desc>Created with Sketch.</desc>
    <defs></defs>
    <g id="Page-1" stroke="none" stroke-width="1" fill="none" fill-rule="evenodd">
        <g id="Desktop-HD-Copy" transform="translate(-254.000000, -5282.000000)" fill="#000000">
            <path d="M268,5282 C260.272,5282 254,5288.272 254,5296 C254,5303.728 260.272,5310 268,5310 C275.728,5310 282,5303.728 282,5296 C282,5288.272 275.728,5282 268,5282 L268,5282 Z M266.6,5307.102 C261.07,5306.416 256.8,5301.712 256.8,5296 C256.8,5295.132 256.912,5294.306 257.094,5293.494 L263.8,5300.2 L263.8,5301.6 C263.8,5303.14 265.06,5304.4 266.6,5304.4 L266.6,5307.102 L266.6,5307.102 Z M276.26,5303.546 C275.896,5302.412 274.86,5301.6 273.6,5301.6 L272.2,5301.6 L272.2,5297.4 C272.2,5296.63 271.57,5296 270.8,5296 L262.4,5296 L262.4,5293.2 L265.2,5293.2 C265.97,5293.2 266.6,5292.57 266.6,5291.8 L266.6,5289 L269.4,5289 C270.94,5289 272.2,5287.74 272.2,5286.2 L272.2,5285.626 C276.302,5287.292 279.2,5291.31 279.2,5296 C279.2,5298.912 278.08,5301.558 276.26,5303.546 L276.26,5303.546 Z" id="website"></path>
        </g>
    </g>
</svg>